<?xml version="1.0" encoding="utf-8"?>
<!-- Generator: Adobe Illustrator 19.2.1, SVG Export Plug-In . SVG Version: 6.00 Build 0)  -->
<svg version="1.1" id="Layer_1" xmlns="http://www.w3.org/2000/svg" xmlns:xlink="http://www.w3.org/1999/xlink" x="0px" y="0px"
	 viewBox="0 0 297.6 963.8" style="enable-background:new 0 0 297.6 963.8;" xml:space="preserve">
<style type="text/css">
	.st0{fill:#002E52;}
	.st1{fill:#A40F2B;}
	.st2{fill:#E6B173;}
	.st3{fill:#FFFFFF;}
	.st4{fill:#333234;}
	.st5{fill:#17304F;}
	.st6{fill:#532516;}
	.st7{fill:#C69155;}
	.st8{opacity:0.1;clip-path:url(#SVGID_3_);fill:#C69155;enable-background:new    ;}
	.st9{fill:#412312;}
	.st10{opacity:0.7;fill:#532516;enable-background:new    ;}
	.st11{fill:#DE324E;}
	.st12{fill:#E0E0E0;}
	.st13{fill:#009EFF;}
	.st14{stroke:#000000;stroke-width:0.5;}
</style>
<g>
	<polygon class="st0" points="80.8,650.9 220,650.9 227.3,566.9 67.3,566.9 	"/>
	<polygon class="st0" points="214.6,954.9 230.9,567.2 153.2,596.7 195.5,954.9 	"/>
	<polygon class="st0" points="83,956.9 66.7,568.9 144.4,598.6 102.1,956.9 	"/>
	<path class="st1" d="M133.2,570.9h99V331.5c0-34.7-28.7-64.6-63.4-64.6h-35.6L133.2,570.9L133.2,570.9z"/>
	<g>
		<path class="st2" d="M277.8,627.9l-53.8-4.4l2.7-34l-6.5-0.5l2.6-32.7l11.8,0.9l52.3,5.4C282.8,601.4,277.8,627.9,277.8,627.9z"/>
		<path class="st1" d="M236.6,417.5c-0.6-5.2-1.4-10-2.3-14.6c-10.2-52.4-39.9-69.9-39.9-69.9l-19.7-68
			c80.8,8.3,102.6,79.9,110.6,134.4c0.8,5.7,1.5,11.2,2.1,16.5l0,0c5.7,50.9,3.3,104.7-0.6,146.5l0,0v0.1l-52.3-5.4V557h0.1
			C241.4,494.5,240.1,448.9,236.6,417.5"/>
	</g>
	<path class="st1" d="M207.8,550l-46.4,20.9H65.2V331.5c0-34.7,28.5-64.6,63.2-64.6h33.1c0,0,31.2,61.1,31.2,95.8L207.8,550z"/>
	<polygon class="st3" points="152.3,409.2 194.4,266.9 110.3,266.9 	"/>
	<g>
		<path class="st2" d="M20.3,627.9l53.8-4.4l-2.7-34l6.5-0.5l-2.6-32.7l-11.8,0.9l-52.3,5.4C15.3,601.4,20.3,627.9,20.3,627.9z"/>
		<path class="st1" d="M61.5,417.5c0.6-5.2,1.4-10,2.3-14.6C74,350.5,103.7,333,103.7,333l19.7-67.9C42.6,273.3,20.8,345,12.8,399.4
			c-0.8,5.7-1.5,11.2-2.1,16.5l0,0C5,466.8,7.4,520.6,11.3,562.4l0,0v0.1l52.3-5.4V557h-0.1C56.7,494.5,57.9,448.9,61.5,417.5"/>
	</g>
	<polygon class="st4" points="152.3,294.9 170.5,266.9 134.1,266.9 	"/>
	<g>
		<circle class="st5" cx="153.1" cy="430.9" r="4.4"/>
		<circle class="st5" cx="153.1" cy="464.8" r="4.4"/>
		<circle class="st5" cx="153.1" cy="498.7" r="4.4"/>
		<circle class="st5" cx="153.1" cy="532.6" r="4.4"/>
	</g>
	<path class="st2" d="M230.2,123.9v-45h-165v91.4c0,40.8,33,73.6,73.8,73.6h16.2c40.8,0,75-32.8,75-73.6V166c6,0,16.4-9.5,16.4-21.2
		s-8.9-21.2-16.6-21.2"/>
	<path class="st6" d="M146.4,211.3c10.6,0,19.2-5.4,19.2-15.4h-38.3C127.3,205.9,135.9,211.3,146.4,211.3"/>
	<g>
		<g>
			<g>
				<rect id="SVGID_1_" x="127.2" y="111.9" class="st7" width="20" height="50"/>
			</g>
			<g>
				<defs>
					<rect id="SVGID_2_" x="127.2" y="111.9" width="20" height="50"/>
				</defs>
				<clipPath id="SVGID_3_">
					<use xlink:href="#SVGID_2_"  style="overflow:visible;"/>
				</clipPath>
				<rect x="127.2" y="111.9" class="st8" width="20" height="50"/>
			</g>
		</g>
	</g>
	<path class="st9" d="M230.2,66.7c0-27.9-12-31.2-28-31.6v-2.2h-31.4c-62.3,0-69.5-26.4-69.5-26.4c-12.6,21.4,0.4,38.6,0.4,38.6
		C64,47.7,50.3,11.5,50.3,11.5c-21.9,59,6.8,82.9,14.8,88.5V85h151v12h-0.4c0,17,6.4,26.9,14.4,26.9V98.7V85.5l0,0L230.2,66.7
		L230.2,66.7z"/>
	<g>
		<circle class="st10" cx="97.8" cy="120.4" r="6.2"/>
		<circle class="st10" cx="176.3" cy="120.4" r="6.2"/>
	</g>
	<rect x="95.2" y="197.9" class="st9" width="100" height="54"/>
	<path d="M162.1,223.9c10.1,0,16.9-16.4,16.9-28.8l-32.8,4.1l-32.8-4.1c0,12.4,6.8,22.8,16.9,28.8l0,0H162.1L162.1,223.9z"/>
	<path class="st11" d="M146.2,227.9c5.8,0,11.2-1.5,15.9-4.1c-4.7-2.6-10.1-4.1-15.9-4.1c-5.8,0-11.2,1.5-15.9,4.1
		C135,226.4,140.4,227.9,146.2,227.9L146.2,227.9z"/>
	<path class="st2" d="M170.8,194.9c0,0-3.7,6-8.2,6h-32.8c-4.5,0-8.2-4-8.2-6H170.8L170.8,194.9z"/>
	<path class="st9" d="M147.2,183.9H120c-15,0-27.2,14-27.2,28H120C135,211.9,147.2,199.9,147.2,183.9L147.2,183.9z"/>
	<path class="st9" d="M147.2,293.6c0,9.1-8,16.4-18,16.4v-16.4c0,9.1-8,16.4-16,16.4v-16.4c0,9.1-8,16.4-18,16.4v-32.8
		c0,9.1-4,16.4-14,16.4v-32.8c0,9.1-8,16.4-16,16.4v-32.8c0,9.1-7.9,16.4-16.9,16.4l16.2-98.5c18.1,0,33.2,14.7,33.2,32.8
		c0,27.2,21.6,49.2,49.6,49.2l0,0L147.2,293.6L147.2,293.6z"/>
	<g>
		<path d="M204.2,111.9h-42.6c-2.3,0-4.4,1.4-4.4,3.7v8.2c0,6.8,5.8,12.1,12.6,12.1h20.6c6.8,0,13.8-5.3,13.8-12.1L204.2,111.9
			L204.2,111.9z M136.8,103.2c5.5,0,10.6,2,14.3,5.6c2.3-3.5,6.2-5.9,10.4-5.9h61.8c2.3,0,4.1,2.2,4.1,4.5s-1.8,4.5-4.1,4.5h-11.1
			v11.9c0,11.3-10.5,20.1-21.8,20.1h-20.6c-11.3,0-20.6-9-20.6-20.3c0-6.8-5.5-12.2-12.4-12.2l-3.3-4.1L136.8,103.2L136.8,103.2z"/>
		<path d="M60.7,111.9c-2.3,0-4.1-2.2-4.1-4.5s1.8-4.5,4.1-4.5h51.5c4.3,0,8.3,2.4,10.6,5.9c3.7-3.6,8.4-5.6,14.4-5.6v8.2
			c-8,0-12.5,5.3-12.5,12.1c0,11.3-9.4,20.3-20.8,20.3H83.3c-11.3,0-20.1-8.8-20.1-20.1v-11.9L60.7,111.9L60.7,111.9z M112.1,111.9
			h-41v11.9c0,6.8,5.3,12.1,12.1,12.1h20.6c6.8,0,11.3-5.3,11.3-12.1v-8.2C115.2,113.3,114.4,111.9,112.1,111.9L112.1,111.9z"/>
	</g>
	<g>
		<polygon class="st0" points="164.4,370.1 152.3,282.7 140.2,370.1 152.3,411 		"/>
	</g>
	<path class="st9" d="M212.2,293.6c0,0-17-7.3-17-16.4V310c-10,0-18-7.3-18-16.4V310c-8,0-16-7.3-16-16.4V310
		c-10,0-15.7-7.3-15.7-16.4l-7.8-24.6l8.4-24.6c27.2,0,49.3-22,49.3-49.2c0-18.1,14.7-32.8,32.9-32.8l17.4,98.5
		c-9.1,0-15.4-7.3-15.4-16.4v32.8c-12,0-18-7.3-18-16.4L212.2,293.6L212.2,293.6z"/>
</g>
<path class="st9" d="M145.7,183.9H173c15,0,27.2,14,27.2,28H173C157.9,211.9,145.7,199.9,145.7,183.9L145.7,183.9z"/>
<g>
	<g>
		<g>
			<polygon class="st3" points="216.4,402 216.4,402.1 168.1,397.1 168.1,397 169.8,380.3 218.1,385.3 			"/>
			<path class="st12" d="M218,385.4l-1.7,16.6l0,0l-48.1-5l0,0l1.7-16.6L218,385.4L218,385.4z M218.1,385.3l-48.3-5l-1.7,16.7v0.1
				l48.3,5V402L218.1,385.3z"/>
			<path class="st13" d="M216.4,402.1l-0.2,2.3c-0.1,1.4-1.4,2.4-2.8,2.3l-43.2-4.5c-1.4-0.1-2.4-1.4-2.3-2.8l0.2-2.3L216.4,402.1z"
				/>
			<path class="st13" d="M218.1,385.3L218.1,385.3l-48.3-5l0,0l0.6-6.1c0.1-1.4,1.4-2.4,2.8-2.3l43.2,4.5c1.4,0.1,2.4,1.4,2.3,2.8
				L218.1,385.3z"/>
		</g>
	</g>
	<g>
		<path class="st14" d="M193.6,391.1l-2.9,2.5c-1.1,0.8-1.9,1.2-2.5,1.2c-1.2-0.1-1.6-1.2-1.4-2.9c0-0.5,0.2-1.1,0.5-2l0.9-2.7
			c-0.7,0.4-1.3,0.8-1.9,1.3c-0.8,0.6-2,1.8-3,2.8c-0.4,0.4-1,1-1.5,1.6c-1.1,1.1-1.7,1.7-1.8,1.7c-0.2,0-0.3-0.2-0.3-0.4
			c0-0.1,0.4-0.6,1.1-1.4c0.6-0.6,1.3-1.3,2.1-2.1c1.2-1.1,1.9-1.8,2-1.9c0.8-0.7,1.5-1.3,2-1.7c0.7-0.5,1.2-0.7,1.5-0.7
			c0.4,0,0.5,0.3,0.5,1c0,0.3-0.2,1-0.6,1.9c-0.4,0.9-0.6,1.8-0.7,2.6c-0.2,1.5,0,2.2,0.5,2.3c0.4,0,0.8-0.1,1.4-0.4
			c0.4-0.3,1-0.7,1.7-1.3l1.9-1.7c0.5-0.5,1.2-1.1,2-1.9l1.7-1.7c0.5-0.5,0.8-0.8,0.9-0.7c0.3,0,0.3,0.2,0.3,0.4
			C197.8,387.2,196.4,388.7,193.6,391.1z"/>
		<path class="st14" d="M195.8,393.5c-0.3,0.5-0.5,1.2-0.6,1.5c-0.1,0.7-0.3,1-0.5,0.9c-0.2,0-0.3-0.7-0.3-1.1
			c0.1-0.8,0.4-1.5,0.8-2.2c0.4-0.6,0.8-0.8,1.1-0.8s0.3,0.2,0.3,0.4L195.8,393.5z M197.1,390.7c-0.4,0-0.6-0.3-0.6-0.8
			c0.1-0.5,0.3-0.7,0.6-0.7c0.5,0.1,0.7,0.2,0.6,0.9C197.7,390.5,197.5,390.8,197.1,390.7z"/>
		<path class="st14" d="M201.4,396c-0.8,0.4-1.4,0.6-1.8,0.7c-0.6,0.2-1.2,0.2-1.8,0.1c-0.3,0-0.5-0.2-0.8-0.4s-0.3-0.6-0.3-0.9
			c0.1-0.8,0.7-1.9,1.7-2.8c0.8-0.7,1.9-1.3,2.7-1.2c0.2,0,0.4,0.1,0.6,0.3c0.2,0.2,0.3,0.3,0.3,0.5c0,0.1-0.1,0.1-0.1,0.1
			c-0.1,0.1-0.2,0.1-0.3,0.2c-0.1,0-0.2-0.1-0.4-0.2c-0.1-0.1-0.2-0.1-0.4-0.1s-0.5,0.1-0.9,0.3c-0.4,0.2-0.7,0.5-1,0.8
			c-0.7,0.7-1.3,1.6-1.4,2.3c0,0.3,0.1,0.5,0.5,0.6c0.5,0.1,1.1,0,1.7-0.2c0.5-0.2,0.9-0.4,1.2-0.5c0.2-0.1,0.7-0.3,1.5-0.8
			c0.2-0.1,0.4-0.2,0.5-0.2c0.3,0,0.3,0.1,0.3,0.3C203.2,395.1,202.5,395.6,201.4,396z"/>
	</g>
</g>
</svg>
