<?xml version="1.0" encoding="utf-8"?>
<!-- Generator: Adobe Illustrator 19.2.1, SVG Export Plug-In . SVG Version: 6.00 Build 0)  -->
<svg version="1.1" id="Layer_1" xmlns="http://www.w3.org/2000/svg" xmlns:xlink="http://www.w3.org/1999/xlink" x="0px" y="0px"
	 viewBox="0 0 2000 1540.7" style="enable-background:new 0 0 2000 1540.7;" xml:space="preserve">
<style type="text/css">
	.st0{opacity:0.5;}
	.st1{fill:#00586C;}
	.st2{fill:#78AFC3;}
	.st3{fill:#457589;}
	.st4{fill:#3A617D;}
	.st5{fill:#E6F2F7;}
	.st6{fill:#BFDBE2;}
	.st7{fill:#A9CFD8;}
	.st8{fill:#DCA882;}
	.st9{fill:#F1F2F2;}
	.st10{fill:#B9BB0F;}
	.st11{fill:#DDAB9B;}
	.st12{fill:#D85F59;}
	.st13{fill:#82B75F;}
	.st14{fill:#E0B373;}
	.st15{fill:#532516;}
	.st16{clip-path:url(#SVGID_2_);fill:#CE9065;}
	.st17{fill:#412312;}
	.st18{opacity:0.5;fill:#532516;}
	.st19{fill-rule:evenodd;clip-rule:evenodd;fill:#222C30;}
	.st20{fill-rule:evenodd;clip-rule:evenodd;fill:#DE324E;}
	.st21{fill-rule:evenodd;clip-rule:evenodd;fill:#DCA882;}
	.st22{fill:#1D1E1C;}
	.st23{fill-rule:evenodd;clip-rule:evenodd;fill:#412312;}
	.st24{fill:#CE9E63;}
	.st25{fill:#F2C6B3;}
	.st26{fill:#F4D8D0;}
	.st27{fill:#E06B5F;}
	.st28{fill:#F7F6F4;}
	.st29{fill:#EEECE9;}
	.st30{fill:#39393A;}
	.st31{fill:#EAD13F;}
	.st32{fill:#0C3959;}
	.st33{fill:#875D45;}
	.st34{fill:#532514;}
	.st35{opacity:0.5;clip-path:url(#SVGID_4_);fill:#532514;}
	.st36{fill:#131718;}
	.st37{fill:#8AB3D7;}
	.st38{fill:#DDE8F3;}
	.st39{fill:#D3B93D;}
	.st40{fill:#594A42;}
	.st41{fill:#AE6B30;}
	.st42{fill:#002D56;}
	.st43{fill:#8A8E93;}
	.st44{fill:#231F20;}
	.st45{fill:#B0B4B8;}
	.st46{fill:#414042;}
	.st47{clip-path:url(#SVGID_6_);}
	.st48{fill:#8FBFE8;}
	.st49{fill:#FFFFFF;}
	.st50{fill:#FFFFFE;}
	.st51{fill:#071C2C;}
	.st52{fill:none;stroke:#FFFFFF;stroke-width:0.5125;}
	.st53{fill:#4C2113;}
	.st54{fill:#6E442B;}
	.st55{fill:#141719;}
	.st56{fill:#333234;}
	.st57{fill:#D67066;}
	.st58{clip-path:url(#SVGID_8_);fill:#AC653C;}
	.st59{opacity:0.5;fill:#532514;}
	.st60{opacity:0.2;fill:url(#SVGID_9_);}
	.st61{fill:#A59381;}
	.st62{fill:#755945;}
	.st63{fill:#7F634F;}
	.st64{fill:#BC4A51;}
	.st65{fill:#6DA589;}
	.st66{fill:#9C9E3B;}
	.st67{fill:#919338;}
	.st68{fill:#FECD29;}
	.st69{fill-rule:evenodd;clip-rule:evenodd;fill:#FFFFFF;}
	.st70{fill-rule:evenodd;clip-rule:evenodd;fill:#A2A6AA;}
	.st71{fill:#043C5C;}
	.st72{fill:#A2A6AA;}
	.st73{fill:#1A3344;}
	.st74{fill:#213C51;}
	.st75{fill:#2C4D63;}
	.st76{fill:none;stroke:url(#SVGID_10_);stroke-width:2;stroke-linejoin:round;stroke-miterlimit:10;}
	.st77{fill:url(#SVGID_11_);}
	.st78{fill:#AD6A30;}
	.st79{fill:#473C54;}
	.st80{fill:#8CC2D3;}
	.st81{fill:#E6E7E8;}
	.st82{clip-path:url(#SVGID_13_);fill:#AC653C;}
	.st83{fill:#0B0F0F;}
	.st84{fill:#D5A07F;}
	.st85{fill:#683914;}
	.st86{fill:#E2E2E5;}
	.st87{fill:none;stroke:#343742;stroke-width:2;stroke-linejoin:round;stroke-miterlimit:10;}
	.st88{fill:#72421F;}
	.st89{fill:none;stroke:#FFFFFF;stroke-width:0.9434;stroke-linecap:round;stroke-miterlimit:10;}
	.st90{fill:#113254;}
	.st91{fill-rule:evenodd;clip-rule:evenodd;fill:#8AB3D7;}
</style>
<g class="st0">
	<rect x="-24.3" y="358.3" class="st1" width="503.7" height="653.1"/>
	<rect x="482" y="358.3" class="st1" width="503.7" height="653.1"/>
	<rect x="983.8" y="358.3" class="st1" width="503.7" height="653.1"/>
	<rect x="1483.5" y="358.3" class="st1" width="538.9" height="653.1"/>
	<rect x="1488.9" y="149.2" class="st1" width="538.9" height="209.1"/>
	<rect x="-22.3" y="154.4" class="st1" width="1503.5" height="199.8"/>
	<rect x="-32.5" y="-12.6" class="st2" width="2065" height="1099.8"/>
	<rect x="205" y="525.9" class="st3" width="5.7" height="50.2"/>
	<rect x="216.4" y="545" class="st3" width="7.6" height="31.1"/>
	<rect x="454.1" y="501.9" class="st3" width="25.8" height="8.5"/>
	<rect x="78" y="426.8" class="st4" width="95.6" height="584.8"/>
	<rect x="167.9" y="567.7" class="st4" width="139.6" height="444"/>
	<rect x="432.1" y="510.4" class="st4" width="65.4" height="501.3"/>
	<rect x="90.6" y="393.6" class="st4" width="10.7" height="51"/>
	<rect x="108.8" y="401.4" class="st4" width="10.7" height="51"/>
	<polygon class="st4" points="40.9,525.9 32,525.9 32,558.5 23.9,558.5 23.9,538.7 13.2,538.7 13.2,558.5 -23.3,558.5 -23.3,1011.7 
		56.6,1011.7 56.6,558.5 40.9,558.5 	"/>
	<rect x="88.7" y="444.5" class="st3" width="10.7" height="21.2"/>
	<rect x="105" y="444.5" class="st3" width="9.4" height="21.2"/>
	<rect x="119.5" y="444.5" class="st3" width="11.3" height="21.2"/>
	<rect x="135.8" y="444.5" class="st3" width="9.4" height="21.2"/>
	<rect x="88.7" y="470.7" class="st3" width="10.7" height="19.8"/>
	<rect x="105" y="470.7" class="st3" width="9.4" height="19.8"/>
	<rect x="119.5" y="470.7" class="st3" width="11.3" height="19.8"/>
	<rect x="135.8" y="470.7" class="st3" width="9.4" height="19.8"/>
	<rect x="88.7" y="496.9" class="st3" width="10.7" height="19.1"/>
	<rect x="105" y="496.9" class="st3" width="9.4" height="19.1"/>
	<rect x="119.5" y="496.9" class="st3" width="11.3" height="19.1"/>
	<rect x="135.8" y="496.9" class="st3" width="9.4" height="19.1"/>
	<rect x="88.7" y="521.7" class="st3" width="10.7" height="20.5"/>
	<rect x="105" y="521.7" class="st3" width="9.4" height="20.5"/>
	<rect x="119.5" y="521.7" class="st3" width="11.3" height="20.5"/>
	<rect x="135.8" y="521.7" class="st3" width="9.4" height="20.5"/>
	<rect x="88.7" y="547.9" class="st3" width="10.7" height="19.8"/>
	<rect x="105" y="547.9" class="st3" width="9.4" height="19.8"/>
	<rect x="119.5" y="547.9" class="st3" width="11.3" height="19.8"/>
	<rect x="135.8" y="547.9" class="st3" width="9.4" height="19.8"/>
	<rect x="88.7" y="572.6" class="st3" width="10.7" height="20.5"/>
	<rect x="105" y="572.6" class="st3" width="9.4" height="20.5"/>
	<rect x="119.5" y="572.6" class="st3" width="11.3" height="20.5"/>
	<rect x="135.8" y="572.6" class="st3" width="9.4" height="20.5"/>
	<rect x="88.7" y="598.8" class="st3" width="10.7" height="19.8"/>
	<rect x="105" y="598.8" class="st3" width="9.4" height="19.8"/>
	<rect x="119.5" y="598.8" class="st3" width="11.3" height="19.8"/>
	<rect x="135.8" y="598.8" class="st3" width="9.4" height="19.8"/>
	<rect x="88.7" y="622.9" class="st3" width="10.7" height="21.2"/>
	<rect x="105" y="622.9" class="st3" width="9.4" height="21.2"/>
	<rect x="119.5" y="622.9" class="st3" width="11.3" height="21.2"/>
	<rect x="135.8" y="622.9" class="st3" width="9.4" height="21.2"/>
	<rect x="105" y="648.4" class="st3" width="9.4" height="20.5"/>
	<rect x="119.5" y="648.4" class="st3" width="11.3" height="20.5"/>
	<rect x="135.8" y="648.4" class="st3" width="9.4" height="20.5"/>
	<rect x="151.6" y="648.4" class="st3" width="11.3" height="20.5"/>
	<rect x="105" y="674.6" class="st3" width="9.4" height="20.5"/>
	<rect x="119.5" y="674.6" class="st3" width="11.3" height="20.5"/>
	<rect x="135.8" y="674.6" class="st3" width="9.4" height="20.5"/>
	<rect x="151.6" y="674.6" class="st3" width="11.3" height="20.5"/>
	<rect x="105" y="700.1" class="st3" width="9.4" height="20.5"/>
	<rect x="119.5" y="700.1" class="st3" width="11.3" height="20.5"/>
	<rect x="135.8" y="700.1" class="st3" width="9.4" height="20.5"/>
	<rect x="151.6" y="700.1" class="st3" width="11.3" height="20.5"/>
	<rect x="105" y="725.5" class="st3" width="9.4" height="20.5"/>
	<rect x="119.5" y="725.5" class="st3" width="11.3" height="20.5"/>
	<rect x="135.8" y="725.5" class="st3" width="9.4" height="20.5"/>
	<rect x="151.6" y="725.5" class="st3" width="11.3" height="20.5"/>
	<rect x="105" y="751" class="st3" width="9.4" height="19.8"/>
	<rect x="119.5" y="751" class="st3" width="11.3" height="19.8"/>
	<rect x="135.8" y="751" class="st3" width="9.4" height="19.8"/>
	<rect x="151.6" y="751" class="st3" width="11.3" height="19.8"/>
	<rect x="105" y="776.5" class="st3" width="9.4" height="19.8"/>
	<rect x="119.5" y="776.5" class="st3" width="11.3" height="19.8"/>
	<rect x="135.8" y="776.5" class="st3" width="9.4" height="19.8"/>
	<rect x="151.6" y="776.5" class="st3" width="11.3" height="19.8"/>
	<rect x="440.9" y="526.6" class="st3" width="7.6" height="17"/>
	<rect x="454.1" y="526.6" class="st3" width="8.2" height="17"/>
	<rect x="466.1" y="526.6" class="st3" width="9.4" height="17"/>
	<rect x="479.9" y="526.6" class="st3" width="7.6" height="17"/>
	<rect x="440.9" y="547.2" class="st3" width="7.6" height="17"/>
	<rect x="454.1" y="547.2" class="st3" width="8.2" height="17"/>
	<rect x="466.1" y="547.2" class="st3" width="9.4" height="17"/>
	<rect x="479.9" y="547.2" class="st3" width="7.6" height="17"/>
	<rect x="440.9" y="567.7" class="st3" width="7.6" height="16.3"/>
	<rect x="454.1" y="567.7" class="st3" width="8.2" height="16.3"/>
	<rect x="466.1" y="567.7" class="st3" width="9.4" height="16.3"/>
	<rect x="479.9" y="567.7" class="st3" width="7.6" height="16.3"/>
	<rect x="440.9" y="588.9" class="st3" width="7.6" height="16.3"/>
	<rect x="454.1" y="588.9" class="st3" width="8.2" height="16.3"/>
	<rect x="466.1" y="588.9" class="st3" width="9.4" height="16.3"/>
	<rect x="479.9" y="588.9" class="st3" width="7.6" height="16.3"/>
	<rect x="440.9" y="609.5" class="st3" width="7.6" height="17.7"/>
	<rect x="454.1" y="609.5" class="st3" width="8.2" height="17.7"/>
	<rect x="466.1" y="609.5" class="st3" width="9.4" height="17.7"/>
	<rect x="479.9" y="609.5" class="st3" width="7.6" height="17.7"/>
	<rect x="440.9" y="629.3" class="st3" width="7.6" height="18.4"/>
	<rect x="454.1" y="629.3" class="st3" width="8.2" height="18.4"/>
	<rect x="466.1" y="629.3" class="st3" width="9.4" height="18.4"/>
	<rect x="479.9" y="629.3" class="st3" width="7.6" height="18.4"/>
	<rect x="440.9" y="650.5" class="st3" width="7.6" height="17"/>
	<rect x="454.1" y="650.5" class="st3" width="8.2" height="17"/>
	<rect x="466.1" y="650.5" class="st3" width="9.4" height="17"/>
	<rect x="479.9" y="650.5" class="st3" width="7.6" height="17"/>
	<rect x="440.9" y="672.4" class="st3" width="7.6" height="15.6"/>
	<rect x="454.1" y="672.4" class="st3" width="8.2" height="15.6"/>
	<rect x="466.1" y="672.4" class="st3" width="9.4" height="15.6"/>
	<rect x="479.9" y="672.4" class="st3" width="7.6" height="15.6"/>
	<rect x="323.3" y="668.2" class="st3" width="44.7" height="68.7"/>
	<rect x="403.2" y="756.7" class="st3" width="313.9" height="255"/>
	<polygon class="st4" points="743.3,613.9 735,613.9 735,630 728.7,630 728.7,603.8 720.7,603.8 720.7,630 707.9,630 707.9,1011.7 
		774.9,1011.7 774.9,630 743.3,630 	"/>
	<rect x="668.6" y="638.6" class="st4" width="19.1" height="117.9"/>
	<rect x="679.8" y="680.1" class="st4" width="38.9" height="331.5"/>
	<rect x="224.5" y="585.4" class="st3" width="12.6" height="7.8"/>
	<rect x="244.7" y="585.4" class="st3" width="12" height="7.8"/>
	<rect x="264.8" y="585.4" class="st3" width="12.6" height="7.8"/>
	<rect x="284.3" y="585.4" class="st3" width="13.2" height="7.8"/>
	<rect x="224.5" y="595.3" class="st3" width="12.6" height="7.8"/>
	<rect x="244.7" y="595.3" class="st3" width="12" height="7.8"/>
	<rect x="264.8" y="595.3" class="st3" width="12.6" height="7.8"/>
	<rect x="284.3" y="595.3" class="st3" width="13.2" height="7.8"/>
	<rect x="224.5" y="605.2" class="st3" width="12.6" height="6.4"/>
	<rect x="244.7" y="605.2" class="st3" width="12" height="6.4"/>
	<rect x="264.8" y="605.2" class="st3" width="12.6" height="6.4"/>
	<rect x="284.3" y="605.2" class="st3" width="13.2" height="6.4"/>
	<rect x="224.5" y="614.4" class="st3" width="12.6" height="7.8"/>
	<rect x="244.7" y="614.4" class="st3" width="12" height="7.8"/>
	<rect x="264.8" y="614.4" class="st3" width="12.6" height="7.8"/>
	<rect x="284.3" y="614.4" class="st3" width="13.2" height="7.8"/>
	<rect x="224.5" y="624.3" class="st3" width="12.6" height="7.1"/>
	<rect x="244.7" y="624.3" class="st3" width="12" height="7.1"/>
	<rect x="264.8" y="624.3" class="st3" width="12.6" height="7.1"/>
	<rect x="284.3" y="624.3" class="st3" width="13.2" height="7.1"/>
	<rect x="224.5" y="634.2" class="st3" width="12.6" height="7.8"/>
	<rect x="244.7" y="634.2" class="st3" width="12" height="7.8"/>
	<rect x="264.8" y="634.2" class="st3" width="12.6" height="7.8"/>
	<rect x="284.3" y="634.2" class="st3" width="13.2" height="7.8"/>
	<rect x="224.5" y="644.1" class="st3" width="12.6" height="7.8"/>
	<rect x="244.7" y="644.1" class="st3" width="12" height="7.8"/>
	<rect x="264.8" y="644.1" class="st3" width="12.6" height="7.8"/>
	<rect x="284.3" y="644.1" class="st3" width="13.2" height="7.8"/>
	<rect x="224.5" y="654" class="st3" width="12.6" height="7.1"/>
	<rect x="244.7" y="654" class="st3" width="12" height="7.1"/>
	<rect x="264.8" y="654" class="st3" width="12.6" height="7.1"/>
	<rect x="284.3" y="654" class="st3" width="13.2" height="7.1"/>
	<rect x="333.4" y="677.4" class="st3" width="11.3" height="10.6"/>
	<rect x="349.7" y="677.4" class="st3" width="8.8" height="10.6"/>
	<rect x="333.4" y="692.3" class="st3" width="11.3" height="11.3"/>
	<rect x="349.7" y="692.3" class="st3" width="8.8" height="11.3"/>
	<rect x="33.3" y="647.7" class="st3" width="66" height="364"/>
	<rect x="42.7" y="656.2" class="st3" width="35.2" height="6.4"/>
	<rect x="42.7" y="665.4" class="st3" width="35.2" height="7.1"/>
	<rect x="42.7" y="675.3" class="st3" width="35.2" height="7.1"/>
	<rect x="42.7" y="684.5" class="st3" width="35.2" height="7.1"/>
	<rect x="42.7" y="694.4" class="st3" width="35.2" height="5.7"/>
	<rect x="42.7" y="703.6" class="st3" width="35.2" height="7.1"/>
	<rect x="394.4" y="695.1" class="st4" width="16.4" height="20.5"/>
	<rect x="402.6" y="682.3" class="st4" width="8.2" height="38.2"/>
	<rect x="446" y="482.8" class="st4" width="2.5" height="27.6"/>
	<rect x="533.4" y="542.2" class="st3" width="25.8" height="8.5"/>
	<rect x="511.4" y="550.7" class="st4" width="116.7" height="461.7"/>
	<rect x="520.1" y="566.9" class="st3" width="7.6" height="17"/>
	<rect x="533.4" y="566.9" class="st3" width="8.2" height="17"/>
	<rect x="545.3" y="566.9" class="st3" width="9.4" height="17"/>
	<rect x="559.2" y="566.9" class="st3" width="7.6" height="17"/>
	<rect x="520.1" y="587.5" class="st3" width="7.6" height="17"/>
	<rect x="533.4" y="587.5" class="st3" width="8.2" height="17"/>
	<rect x="545.3" y="587.5" class="st3" width="9.4" height="17"/>
	<rect x="559.2" y="587.5" class="st3" width="7.6" height="17"/>
	<rect x="520.1" y="608" class="st3" width="7.6" height="16.3"/>
	<rect x="533.4" y="608" class="st3" width="8.2" height="16.3"/>
	<rect x="545.3" y="608" class="st3" width="9.4" height="16.3"/>
	<rect x="559.2" y="608" class="st3" width="7.6" height="16.3"/>
	<rect x="520.1" y="629.2" class="st3" width="7.6" height="16.3"/>
	<rect x="533.4" y="629.2" class="st3" width="8.2" height="16.3"/>
	<rect x="545.3" y="629.2" class="st3" width="9.4" height="16.3"/>
	<rect x="559.2" y="629.2" class="st3" width="7.6" height="16.3"/>
	<rect x="520.1" y="649.8" class="st3" width="7.6" height="17.7"/>
	<rect x="533.4" y="649.8" class="st3" width="8.2" height="17.7"/>
	<rect x="545.3" y="649.8" class="st3" width="9.4" height="17.7"/>
	<rect x="559.2" y="649.8" class="st3" width="7.6" height="17.7"/>
	<rect x="520.1" y="669.6" class="st3" width="7.6" height="18.4"/>
	<rect x="533.4" y="669.6" class="st3" width="8.2" height="18.4"/>
	<rect x="545.3" y="669.6" class="st3" width="9.4" height="18.4"/>
	<rect x="559.2" y="669.6" class="st3" width="7.6" height="18.4"/>
	<rect x="520.1" y="690.8" class="st3" width="7.6" height="17"/>
	<rect x="533.4" y="690.8" class="st3" width="8.2" height="17"/>
	<rect x="545.3" y="690.8" class="st3" width="9.4" height="17"/>
	<rect x="559.2" y="690.8" class="st3" width="7.6" height="17"/>
	<rect x="520.1" y="712.7" class="st3" width="7.6" height="15.6"/>
	<rect x="533.4" y="712.7" class="st3" width="8.2" height="15.6"/>
	<rect x="545.3" y="712.7" class="st3" width="9.4" height="15.6"/>
	<rect x="559.2" y="712.7" class="st3" width="7.6" height="15.6"/>
	<rect x="525.2" y="523.1" class="st4" width="2.5" height="27.6"/>
	<rect x="237.1" y="554.9" class="st4" width="47.2" height="21.2"/>
	<rect x="307.6" y="707.8" class="st3" width="133.4" height="303.8"/>
	<rect x="176.1" y="700.1" class="st3" width="101.3" height="311.6"/>
	<rect x="259.8" y="847.3" class="st3" width="8.2" height="17"/>
	<rect x="247.8" y="847.3" class="st3" width="7.6" height="17"/>
	<rect x="234" y="847.3" class="st3" width="8.8" height="17"/>
	<rect x="221.4" y="847.3" class="st3" width="8.2" height="17"/>
	<rect x="259.8" y="827.4" class="st3" width="8.2" height="17"/>
	<rect x="247.8" y="827.4" class="st3" width="7.6" height="17"/>
	<rect x="234" y="827.4" class="st3" width="8.8" height="17"/>
	<rect x="221.4" y="827.4" class="st3" width="8.2" height="17"/>
	<rect x="259.8" y="806.9" class="st3" width="8.2" height="17"/>
	<rect x="247.8" y="806.9" class="st3" width="7.6" height="17"/>
	<rect x="234" y="806.9" class="st3" width="8.8" height="17"/>
	<rect x="221.4" y="806.9" class="st3" width="8.2" height="17"/>
	<rect x="259.8" y="787.8" class="st3" width="8.2" height="15.6"/>
	<rect x="247.8" y="787.8" class="st3" width="7.6" height="15.6"/>
	<rect x="234" y="787.8" class="st3" width="8.8" height="15.6"/>
	<rect x="221.4" y="787.8" class="st3" width="8.2" height="15.6"/>
	<rect x="259.8" y="767.3" class="st3" width="8.2" height="16.3"/>
	<rect x="247.8" y="767.3" class="st3" width="7.6" height="16.3"/>
	<rect x="234" y="767.3" class="st3" width="8.8" height="16.3"/>
	<rect x="221.4" y="767.3" class="st3" width="8.2" height="16.3"/>
	<rect x="259.8" y="747.5" class="st3" width="8.2" height="15.6"/>
	<rect x="247.8" y="747.5" class="st3" width="7.6" height="15.6"/>
	<rect x="234" y="747.5" class="st3" width="8.8" height="15.6"/>
	<rect x="221.4" y="747.5" class="st3" width="8.2" height="15.6"/>
	<rect x="259.8" y="726.2" class="st3" width="8.2" height="17"/>
	<rect x="247.8" y="726.2" class="st3" width="7.6" height="17"/>
	<rect x="234" y="726.2" class="st3" width="8.8" height="17"/>
	<rect x="221.4" y="726.2" class="st3" width="8.2" height="17"/>
	<rect x="259.8" y="706.4" class="st3" width="8.2" height="17"/>
	<rect x="247.8" y="706.4" class="st3" width="7.6" height="17"/>
	<rect x="234" y="706.4" class="st3" width="8.8" height="17"/>
	<rect x="221.4" y="706.4" class="st3" width="8.2" height="17"/>
	<rect x="355.4" y="782.2" class="st3" width="56" height="229.5"/>
	<g>
		<rect x="373.6" y="789.2" class="st3" width="29.6" height="5.7"/>
		<rect x="373.6" y="797" class="st3" width="29.6" height="6.4"/>
		<rect x="373.6" y="805.5" class="st3" width="29.6" height="5.7"/>
		<rect x="373.6" y="813.3" class="st3" width="29.6" height="5.7"/>
		<rect x="373.6" y="821.8" class="st3" width="29.6" height="4.2"/>
		<rect x="373.6" y="829.6" class="st3" width="29.6" height="5.7"/>
	</g>
	<rect x="522.7" y="804.8" class="st3" width="196.3" height="206.9"/>
	<rect x="537.2" y="952" class="st3" width="12.6" height="17"/>
	<rect x="556.7" y="952" class="st3" width="12" height="17"/>
	<rect x="576.2" y="952" class="st3" width="13.8" height="17"/>
	<rect x="596.3" y="952" class="st3" width="13.2" height="17"/>
	<rect x="537.2" y="932.2" class="st3" width="12.6" height="17"/>
	<rect x="556.7" y="932.2" class="st3" width="12" height="17"/>
	<rect x="576.2" y="932.2" class="st3" width="13.8" height="17"/>
	<rect x="596.3" y="932.2" class="st3" width="13.2" height="17"/>
	<rect x="537.2" y="911.7" class="st3" width="12.6" height="17"/>
	<rect x="556.7" y="911.7" class="st3" width="12" height="17"/>
	<rect x="576.2" y="911.7" class="st3" width="13.8" height="17"/>
	<rect x="596.3" y="911.7" class="st3" width="13.2" height="17"/>
	<rect x="537.2" y="892.6" class="st3" width="12.6" height="15.6"/>
	<rect x="556.7" y="892.6" class="st3" width="12" height="15.6"/>
	<rect x="576.2" y="892.6" class="st3" width="13.8" height="15.6"/>
	<rect x="596.3" y="892.6" class="st3" width="13.2" height="15.6"/>
	<rect x="537.2" y="872" class="st3" width="12.6" height="16.3"/>
	<rect x="556.7" y="872" class="st3" width="12" height="16.3"/>
	<rect x="576.2" y="872" class="st3" width="13.8" height="16.3"/>
	<rect x="596.3" y="872" class="st3" width="13.2" height="16.3"/>
	<rect x="537.2" y="852.2" class="st3" width="12.6" height="15.6"/>
	<rect x="556.7" y="852.2" class="st3" width="12" height="15.6"/>
	<rect x="576.2" y="852.2" class="st3" width="13.8" height="15.6"/>
	<rect x="596.3" y="852.2" class="st3" width="13.2" height="15.6"/>
	<rect x="537.2" y="831" class="st3" width="12.6" height="17"/>
	<rect x="556.7" y="831" class="st3" width="12" height="17"/>
	<rect x="576.2" y="831" class="st3" width="13.8" height="17"/>
	<rect x="596.3" y="831" class="st3" width="13.2" height="17"/>
	<rect x="537.2" y="811.2" class="st3" width="12.6" height="17"/>
	<rect x="556.7" y="811.2" class="st3" width="12" height="17"/>
	<rect x="576.2" y="811.2" class="st3" width="13.8" height="17"/>
	<rect x="596.3" y="811.2" class="st3" width="13.2" height="17"/>
	<rect x="407.6" y="888.3" class="st3" width="84.9" height="123.3"/>
	<polygon class="st4" points="838.1,525.9 829.2,525.9 829.2,558.5 821.1,558.5 821.1,538.7 810.4,538.7 810.4,558.5 773.9,558.5 
		773.9,1011.7 853.8,1011.7 853.8,558.5 838.1,558.5 	"/>
	<g>
		<rect x="1563" y="501.9" class="st3" width="25.8" height="8.5"/>
		<rect x="1540.9" y="510.4" class="st4" width="65.4" height="501.3"/>
		<g>
			<rect x="1549.7" y="526.6" class="st3" width="7.6" height="17"/>
			<rect x="1563" y="526.6" class="st3" width="8.2" height="17"/>
			<rect x="1574.9" y="526.6" class="st3" width="9.4" height="17"/>
			<rect x="1588.8" y="526.6" class="st3" width="7.5" height="17"/>
			<rect x="1549.7" y="547.2" class="st3" width="7.6" height="17"/>
			<rect x="1563" y="547.2" class="st3" width="8.2" height="17"/>
			<rect x="1574.9" y="547.2" class="st3" width="9.4" height="17"/>
			<rect x="1588.8" y="547.2" class="st3" width="7.5" height="17"/>
			<rect x="1549.7" y="567.7" class="st3" width="7.6" height="16.3"/>
			<rect x="1563" y="567.7" class="st3" width="8.2" height="16.3"/>
			<rect x="1574.9" y="567.7" class="st3" width="9.4" height="16.3"/>
			<rect x="1588.8" y="567.7" class="st3" width="7.5" height="16.3"/>
			<rect x="1549.7" y="588.9" class="st3" width="7.6" height="16.3"/>
			<rect x="1563" y="588.9" class="st3" width="8.2" height="16.3"/>
			<rect x="1574.9" y="588.9" class="st3" width="9.4" height="16.3"/>
			<rect x="1588.8" y="588.9" class="st3" width="7.5" height="16.3"/>
			<rect x="1549.7" y="609.5" class="st3" width="7.6" height="17.7"/>
			<rect x="1563" y="609.5" class="st3" width="8.2" height="17.7"/>
			<rect x="1574.9" y="609.5" class="st3" width="9.4" height="17.7"/>
			<rect x="1588.8" y="609.5" class="st3" width="7.5" height="17.7"/>
			<rect x="1549.7" y="629.3" class="st3" width="7.6" height="18.4"/>
			<rect x="1563" y="629.3" class="st3" width="8.2" height="18.4"/>
			<rect x="1574.9" y="629.3" class="st3" width="9.4" height="18.4"/>
			<rect x="1588.8" y="629.3" class="st3" width="7.5" height="18.4"/>
			<rect x="1549.7" y="650.5" class="st3" width="7.6" height="17"/>
			<rect x="1563" y="650.5" class="st3" width="8.2" height="17"/>
			<rect x="1574.9" y="650.5" class="st3" width="9.4" height="17"/>
			<rect x="1588.8" y="650.5" class="st3" width="7.5" height="17"/>
			<rect x="1549.7" y="672.4" class="st3" width="7.6" height="15.6"/>
			<rect x="1563" y="672.4" class="st3" width="8.2" height="15.6"/>
			<rect x="1574.9" y="672.4" class="st3" width="9.4" height="15.6"/>
			<rect x="1588.8" y="672.4" class="st3" width="7.5" height="15.6"/>
		</g>
		<rect x="1554.8" y="482.8" class="st4" width="2.5" height="27.6"/>
	</g>
	<rect x="830.5" y="647.7" class="st3" width="66" height="364"/>
	<g>
		<rect x="839.9" y="656.2" class="st3" width="35.2" height="6.4"/>
		<rect x="839.9" y="665.4" class="st3" width="35.2" height="7.1"/>
		<rect x="839.9" y="675.3" class="st3" width="35.2" height="7.1"/>
		<rect x="839.9" y="684.5" class="st3" width="35.2" height="7.1"/>
		<rect x="839.9" y="694.4" class="st3" width="35.2" height="5.7"/>
		<rect x="839.9" y="703.6" class="st3" width="35.2" height="7.1"/>
	</g>
	<rect x="894.5" y="700.1" class="st3" width="112.4" height="311.6"/>
	<g>
		<rect x="978.1" y="847.3" class="st3" width="8.2" height="17"/>
		<rect x="966.2" y="847.3" class="st3" width="7.5" height="17"/>
		<rect x="952.3" y="847.3" class="st3" width="8.8" height="17"/>
		<rect x="939.7" y="847.3" class="st3" width="8.2" height="17"/>
		<rect x="978.1" y="827.4" class="st3" width="8.2" height="17"/>
		<rect x="966.2" y="827.4" class="st3" width="7.5" height="17"/>
		<rect x="952.3" y="827.4" class="st3" width="8.8" height="17"/>
		<rect x="939.7" y="827.4" class="st3" width="8.2" height="17"/>
		<rect x="978.1" y="806.9" class="st3" width="8.2" height="17"/>
		<rect x="966.2" y="806.9" class="st3" width="7.5" height="17"/>
		<rect x="952.3" y="806.9" class="st3" width="8.8" height="17"/>
		<rect x="939.7" y="806.9" class="st3" width="8.2" height="17"/>
		<rect x="978.1" y="787.8" class="st3" width="8.2" height="15.6"/>
		<rect x="966.2" y="787.8" class="st3" width="7.5" height="15.6"/>
		<rect x="952.3" y="787.8" class="st3" width="8.8" height="15.6"/>
		<rect x="939.7" y="787.8" class="st3" width="8.2" height="15.6"/>
		<rect x="978.1" y="767.3" class="st3" width="8.2" height="16.3"/>
		<rect x="966.2" y="767.3" class="st3" width="7.5" height="16.3"/>
		<rect x="952.3" y="767.3" class="st3" width="8.8" height="16.3"/>
		<rect x="939.7" y="767.3" class="st3" width="8.2" height="16.3"/>
		<rect x="978.1" y="747.5" class="st3" width="8.2" height="15.6"/>
		<rect x="966.2" y="747.5" class="st3" width="7.5" height="15.6"/>
		<rect x="952.3" y="747.5" class="st3" width="8.8" height="15.6"/>
		<rect x="939.7" y="747.5" class="st3" width="8.2" height="15.6"/>
		<rect x="978.1" y="726.2" class="st3" width="8.2" height="17"/>
		<rect x="966.2" y="726.2" class="st3" width="7.5" height="17"/>
		<rect x="952.3" y="726.2" class="st3" width="8.8" height="17"/>
		<rect x="939.7" y="726.2" class="st3" width="8.2" height="17"/>
		<rect x="978.1" y="706.4" class="st3" width="8.2" height="17"/>
		<rect x="966.2" y="706.4" class="st3" width="7.5" height="17"/>
		<rect x="952.3" y="706.4" class="st3" width="8.8" height="17"/>
		<rect x="939.7" y="706.4" class="st3" width="8.2" height="17"/>
	</g>
	<g>
		<rect x="1699.3" y="647.7" class="st3" width="66" height="364"/>
		<g>
			<rect x="1708.7" y="656.2" class="st3" width="35.2" height="6.4"/>
			<rect x="1708.7" y="665.4" class="st3" width="35.2" height="7.1"/>
			<rect x="1708.7" y="675.3" class="st3" width="35.2" height="7.1"/>
			<rect x="1708.7" y="684.5" class="st3" width="35.2" height="7.1"/>
			<rect x="1708.7" y="694.4" class="st3" width="35.2" height="5.7"/>
			<rect x="1708.7" y="703.6" class="st3" width="35.2" height="7.1"/>
		</g>
		<rect x="1763.2" y="700.1" class="st3" width="101.3" height="311.6"/>
		<g>
			<rect x="1846.9" y="847.3" class="st3" width="8.2" height="17"/>
			<rect x="1834.9" y="847.3" class="st3" width="7.5" height="17"/>
			<rect x="1821.1" y="847.3" class="st3" width="8.8" height="17"/>
			<rect x="1808.5" y="847.3" class="st3" width="8.2" height="17"/>
			<rect x="1846.9" y="827.4" class="st3" width="8.2" height="17"/>
			<rect x="1834.9" y="827.4" class="st3" width="7.5" height="17"/>
			<rect x="1821.1" y="827.4" class="st3" width="8.8" height="17"/>
			<rect x="1808.5" y="827.4" class="st3" width="8.2" height="17"/>
			<rect x="1846.9" y="806.9" class="st3" width="8.2" height="17"/>
			<rect x="1834.9" y="806.9" class="st3" width="7.5" height="17"/>
			<rect x="1821.1" y="806.9" class="st3" width="8.8" height="17"/>
			<rect x="1808.5" y="806.9" class="st3" width="8.2" height="17"/>
			<rect x="1846.9" y="787.8" class="st3" width="8.2" height="15.6"/>
			<rect x="1834.9" y="787.8" class="st3" width="7.5" height="15.6"/>
			<rect x="1821.1" y="787.8" class="st3" width="8.8" height="15.6"/>
			<rect x="1808.5" y="787.8" class="st3" width="8.2" height="15.6"/>
			<rect x="1846.9" y="767.3" class="st3" width="8.2" height="16.3"/>
			<rect x="1834.9" y="767.3" class="st3" width="7.5" height="16.3"/>
			<rect x="1821.1" y="767.3" class="st3" width="8.8" height="16.3"/>
			<rect x="1808.5" y="767.3" class="st3" width="8.2" height="16.3"/>
			<rect x="1846.9" y="747.5" class="st3" width="8.2" height="15.6"/>
			<rect x="1834.9" y="747.5" class="st3" width="7.5" height="15.6"/>
			<rect x="1821.1" y="747.5" class="st3" width="8.8" height="15.6"/>
			<rect x="1808.5" y="747.5" class="st3" width="8.2" height="15.6"/>
			<rect x="1846.9" y="726.2" class="st3" width="8.2" height="17"/>
			<rect x="1834.9" y="726.2" class="st3" width="7.5" height="17"/>
			<rect x="1821.1" y="726.2" class="st3" width="8.8" height="17"/>
			<rect x="1808.5" y="726.2" class="st3" width="8.2" height="17"/>
			<rect x="1846.9" y="706.4" class="st3" width="8.2" height="17"/>
			<rect x="1834.9" y="706.4" class="st3" width="7.5" height="17"/>
			<rect x="1821.1" y="706.4" class="st3" width="8.8" height="17"/>
			<rect x="1808.5" y="706.4" class="st3" width="8.2" height="17"/>
		</g>
	</g>
	<rect x="1857.7" y="537.8" class="st4" width="95.6" height="473.9"/>
	<rect x="1920.5" y="517.2" class="st4" width="10.7" height="41.2"/>
	<g>
		<rect x="1940.7" y="552.1" class="st3" width="10.7" height="17.2"/>
		<rect x="1925.6" y="552.1" class="st3" width="9.4" height="17.2"/>
		<rect x="1909.2" y="552.1" class="st3" width="11.3" height="17.2"/>
		<rect x="1894.7" y="552.1" class="st3" width="9.4" height="17.2"/>
		<rect x="1940.7" y="573.2" class="st3" width="10.7" height="16"/>
		<rect x="1925.6" y="573.2" class="st3" width="9.4" height="16"/>
		<rect x="1909.2" y="573.2" class="st3" width="11.3" height="16"/>
		<rect x="1894.7" y="573.2" class="st3" width="9.4" height="16"/>
		<rect x="1940.7" y="594.4" class="st3" width="10.7" height="15.4"/>
		<rect x="1925.6" y="594.4" class="st3" width="9.4" height="15.4"/>
		<rect x="1909.2" y="594.4" class="st3" width="11.3" height="15.4"/>
		<rect x="1894.7" y="594.4" class="st3" width="9.4" height="15.4"/>
		<rect x="1940.7" y="614.4" class="st3" width="10.7" height="16.6"/>
		<rect x="1925.6" y="614.4" class="st3" width="9.4" height="16.6"/>
		<rect x="1909.2" y="614.4" class="st3" width="11.3" height="16.6"/>
		<rect x="1894.7" y="614.4" class="st3" width="9.4" height="16.6"/>
		<rect x="1940.7" y="635.6" class="st3" width="10.7" height="16"/>
		<rect x="1925.6" y="635.6" class="st3" width="9.4" height="16"/>
		<rect x="1909.2" y="635.6" class="st3" width="11.3" height="16"/>
		<rect x="1894.7" y="635.6" class="st3" width="9.4" height="16"/>
		<rect x="1940.7" y="655.6" class="st3" width="10.7" height="16.6"/>
		<rect x="1925.6" y="655.6" class="st3" width="9.4" height="16.6"/>
		<rect x="1909.2" y="655.6" class="st3" width="11.3" height="16.6"/>
		<rect x="1894.7" y="655.6" class="st3" width="9.4" height="16.6"/>
		<rect x="1940.7" y="676.8" class="st3" width="10.7" height="16"/>
		<rect x="1925.6" y="676.8" class="st3" width="9.4" height="16"/>
		<rect x="1909.2" y="676.8" class="st3" width="11.3" height="16"/>
		<rect x="1894.7" y="676.8" class="st3" width="9.4" height="16"/>
		<rect x="1940.7" y="696.2" class="st3" width="10.7" height="17.2"/>
		<rect x="1925.6" y="696.2" class="st3" width="9.4" height="17.2"/>
		<rect x="1909.2" y="696.2" class="st3" width="11.3" height="17.2"/>
		<rect x="1894.7" y="696.2" class="st3" width="9.4" height="17.2"/>
		<rect x="1925.6" y="716.8" class="st3" width="9.4" height="16.6"/>
		<rect x="1909.2" y="716.8" class="st3" width="11.3" height="16.6"/>
		<rect x="1894.7" y="716.8" class="st3" width="9.4" height="16.6"/>
		<rect x="1877.1" y="716.8" class="st3" width="11.3" height="16.6"/>
		<rect x="1925.6" y="738" class="st3" width="9.4" height="16.6"/>
		<rect x="1909.2" y="738" class="st3" width="11.3" height="16.6"/>
		<rect x="1894.7" y="738" class="st3" width="9.4" height="16.6"/>
		<rect x="1877.1" y="738" class="st3" width="11.3" height="16.6"/>
		<rect x="1925.6" y="758.6" class="st3" width="9.4" height="16.6"/>
		<rect x="1909.2" y="758.6" class="st3" width="11.3" height="16.6"/>
		<rect x="1894.7" y="758.6" class="st3" width="9.4" height="16.6"/>
		<rect x="1877.1" y="758.6" class="st3" width="11.3" height="16.6"/>
		<rect x="1925.6" y="779.2" class="st3" width="9.4" height="16.6"/>
		<rect x="1909.2" y="779.2" class="st3" width="11.3" height="16.6"/>
		<rect x="1894.7" y="779.2" class="st3" width="9.4" height="16.6"/>
		<rect x="1877.1" y="779.2" class="st3" width="11.3" height="16.6"/>
		<rect x="1925.6" y="799.7" class="st3" width="9.4" height="16"/>
		<rect x="1909.2" y="799.7" class="st3" width="11.3" height="16"/>
		<rect x="1894.7" y="799.7" class="st3" width="9.4" height="16"/>
		<rect x="1877.1" y="799.7" class="st3" width="11.3" height="16"/>
		<rect x="1925.6" y="820.3" class="st3" width="9.4" height="16"/>
		<rect x="1909.2" y="820.3" class="st3" width="11.3" height="16"/>
		<rect x="1894.7" y="820.3" class="st3" width="9.4" height="16"/>
		<rect x="1877.1" y="820.3" class="st3" width="11.3" height="16"/>
	</g>
	<rect x="1950.1" y="660.5" class="st4" width="72.3" height="351.2"/>
	<g>
		<rect x="1962.6" y="725.9" class="st3" width="8.1" height="12.7"/>
		<rect x="1974.9" y="725.9" class="st3" width="7.1" height="12.7"/>
		<rect x="1985.8" y="725.9" class="st3" width="8.6" height="12.7"/>
		<rect x="1998.2" y="725.9" class="st3" width="7.1" height="12.7"/>
		<rect x="1962.6" y="741.5" class="st3" width="8.1" height="11.8"/>
		<rect x="1974.9" y="741.5" class="st3" width="7.1" height="11.8"/>
		<rect x="1985.8" y="741.5" class="st3" width="8.6" height="11.8"/>
		<rect x="1998.2" y="741.5" class="st3" width="7.1" height="11.8"/>
		<rect x="1962.6" y="757.1" class="st3" width="8.1" height="11.4"/>
		<rect x="1974.9" y="757.1" class="st3" width="7.1" height="11.4"/>
		<rect x="1985.8" y="757.1" class="st3" width="8.6" height="11.4"/>
		<rect x="1998.2" y="757.1" class="st3" width="7.1" height="11.4"/>
		<rect x="1962.6" y="771.8" class="st3" width="8.1" height="12.2"/>
		<rect x="1974.9" y="771.8" class="st3" width="7.1" height="12.2"/>
		<rect x="1985.8" y="771.8" class="st3" width="8.6" height="12.2"/>
		<rect x="1998.2" y="771.8" class="st3" width="7.1" height="12.2"/>
		<rect x="1962.6" y="787.5" class="st3" width="8.1" height="11.8"/>
		<rect x="1974.9" y="787.5" class="st3" width="7.1" height="11.8"/>
		<rect x="1985.8" y="787.5" class="st3" width="8.6" height="11.8"/>
		<rect x="1998.2" y="787.5" class="st3" width="7.1" height="11.8"/>
		<rect x="1962.6" y="802.2" class="st3" width="8.1" height="12.2"/>
		<rect x="1974.9" y="802.2" class="st3" width="7.1" height="12.2"/>
		<rect x="1985.8" y="802.2" class="st3" width="8.6" height="12.2"/>
		<rect x="1998.2" y="802.2" class="st3" width="7.1" height="12.2"/>
		<rect x="1962.6" y="817.8" class="st3" width="8.1" height="11.8"/>
		<rect x="1974.9" y="817.8" class="st3" width="7.1" height="11.8"/>
		<rect x="1985.8" y="817.8" class="st3" width="8.6" height="11.8"/>
		<rect x="1998.2" y="817.8" class="st3" width="7.1" height="11.8"/>
		<rect x="1962.6" y="832.2" class="st3" width="8.1" height="12.7"/>
		<rect x="1974.9" y="832.2" class="st3" width="7.1" height="12.7"/>
		<rect x="1985.8" y="832.2" class="st3" width="8.6" height="12.7"/>
		<rect x="1998.2" y="832.2" class="st3" width="7.1" height="12.7"/>
		<rect x="1974.9" y="847.3" class="st3" width="7.1" height="12.2"/>
		<rect x="1985.8" y="847.3" class="st3" width="8.6" height="12.2"/>
		<rect x="1998.2" y="847.3" class="st3" width="7.1" height="12.2"/>
		<rect x="2010.1" y="847.3" class="st3" width="8.6" height="12.2"/>
		<rect x="1974.9" y="863" class="st3" width="7.1" height="12.2"/>
		<rect x="1985.8" y="863" class="st3" width="8.6" height="12.2"/>
		<rect x="1998.2" y="863" class="st3" width="7.1" height="12.2"/>
		<rect x="2010.1" y="863" class="st3" width="8.6" height="12.2"/>
		<rect x="1974.9" y="878.1" class="st3" width="7.1" height="12.2"/>
		<rect x="1985.8" y="878.1" class="st3" width="8.6" height="12.2"/>
		<rect x="1998.2" y="878.1" class="st3" width="7.1" height="12.2"/>
		<rect x="2010.1" y="878.1" class="st3" width="8.6" height="12.2"/>
		<rect x="1974.9" y="893.3" class="st3" width="7.1" height="12.2"/>
		<rect x="1985.8" y="893.3" class="st3" width="8.6" height="12.2"/>
		<rect x="1998.2" y="893.3" class="st3" width="7.1" height="12.2"/>
		<rect x="2010.1" y="893.3" class="st3" width="8.6" height="12.2"/>
		<rect x="1974.9" y="908.5" class="st3" width="7.1" height="11.8"/>
		<rect x="1985.8" y="908.5" class="st3" width="8.6" height="11.8"/>
		<rect x="1998.2" y="908.5" class="st3" width="7.1" height="11.8"/>
		<rect x="2010.1" y="908.5" class="st3" width="8.6" height="11.8"/>
		<rect x="1974.9" y="923.7" class="st3" width="7.1" height="11.8"/>
		<rect x="1985.8" y="923.7" class="st3" width="8.6" height="11.8"/>
		<rect x="1998.2" y="923.7" class="st3" width="7.1" height="11.8"/>
		<rect x="2010.1" y="923.7" class="st3" width="8.6" height="11.8"/>
	</g>
	<g>
		<polygon class="st4" points="1658.6,603.8 1648.6,603.8 1648.6,630 1640.8,630 1640.8,613.9 1630.4,613.9 1630.4,630 1587.2,630 
			1587.2,1011.7 1674.6,1011.7 1674.6,630 1658.6,630 		"/>
		<rect x="1663.9" y="680.1" class="st4" width="38.9" height="331.5"/>
	</g>
	<rect x="1327.1" y="479.7" class="st4" width="95.6" height="532"/>
	<rect x="1339.7" y="449.4" class="st4" width="10.7" height="46.4"/>
	<rect x="1357.9" y="456.5" class="st4" width="10.7" height="46.4"/>
	<g>
		<rect x="1337.8" y="495.8" class="st3" width="10.7" height="19.3"/>
		<rect x="1354.1" y="495.8" class="st3" width="9.4" height="19.3"/>
		<rect x="1368.6" y="495.8" class="st3" width="11.3" height="19.3"/>
		<rect x="1385" y="495.8" class="st3" width="9.4" height="19.3"/>
		<rect x="1337.8" y="519.6" class="st3" width="10.7" height="18"/>
		<rect x="1354.1" y="519.6" class="st3" width="9.4" height="18"/>
		<rect x="1368.6" y="519.6" class="st3" width="11.3" height="18"/>
		<rect x="1385" y="519.6" class="st3" width="9.4" height="18"/>
		<rect x="1337.8" y="543.4" class="st3" width="10.7" height="17.4"/>
		<rect x="1354.1" y="543.4" class="st3" width="9.4" height="17.4"/>
		<rect x="1368.6" y="543.4" class="st3" width="11.3" height="17.4"/>
		<rect x="1385" y="543.4" class="st3" width="9.4" height="17.4"/>
		<rect x="1337.8" y="566" class="st3" width="10.7" height="18.7"/>
		<rect x="1354.1" y="566" class="st3" width="9.4" height="18.7"/>
		<rect x="1368.6" y="566" class="st3" width="11.3" height="18.7"/>
		<rect x="1385" y="566" class="st3" width="9.4" height="18.7"/>
		<rect x="1337.8" y="589.8" class="st3" width="10.7" height="18"/>
		<rect x="1354.1" y="589.8" class="st3" width="9.4" height="18"/>
		<rect x="1368.6" y="589.8" class="st3" width="11.3" height="18"/>
		<rect x="1385" y="589.8" class="st3" width="9.4" height="18"/>
		<rect x="1337.8" y="612.3" class="st3" width="10.7" height="18.7"/>
		<rect x="1354.1" y="612.3" class="st3" width="9.4" height="18.7"/>
		<rect x="1368.6" y="612.3" class="st3" width="11.3" height="18.7"/>
		<rect x="1385" y="612.3" class="st3" width="9.4" height="18.7"/>
		<rect x="1337.8" y="636.1" class="st3" width="10.7" height="18"/>
		<rect x="1354.1" y="636.1" class="st3" width="9.4" height="18"/>
		<rect x="1368.6" y="636.1" class="st3" width="11.3" height="18"/>
		<rect x="1385" y="636.1" class="st3" width="9.4" height="18"/>
		<rect x="1337.8" y="658" class="st3" width="10.7" height="19.3"/>
		<rect x="1354.1" y="658" class="st3" width="9.4" height="19.3"/>
		<rect x="1368.6" y="658" class="st3" width="11.3" height="19.3"/>
		<rect x="1385" y="658" class="st3" width="9.4" height="19.3"/>
		<rect x="1354.1" y="681.2" class="st3" width="9.4" height="18.7"/>
		<rect x="1368.6" y="681.2" class="st3" width="11.3" height="18.7"/>
		<rect x="1385" y="681.2" class="st3" width="9.4" height="18.7"/>
		<rect x="1400.7" y="681.2" class="st3" width="11.3" height="18.7"/>
		<rect x="1354.1" y="705" class="st3" width="9.4" height="18.7"/>
		<rect x="1368.6" y="705" class="st3" width="11.3" height="18.7"/>
		<rect x="1385" y="705" class="st3" width="9.4" height="18.7"/>
		<rect x="1400.7" y="705" class="st3" width="11.3" height="18.7"/>
		<rect x="1354.1" y="728.2" class="st3" width="9.4" height="18.7"/>
		<rect x="1368.6" y="728.2" class="st3" width="11.3" height="18.7"/>
		<rect x="1385" y="728.2" class="st3" width="9.4" height="18.7"/>
		<rect x="1400.7" y="728.2" class="st3" width="11.3" height="18.7"/>
		<rect x="1354.1" y="751.4" class="st3" width="9.4" height="18.7"/>
		<rect x="1368.6" y="751.4" class="st3" width="11.3" height="18.7"/>
		<rect x="1385" y="751.4" class="st3" width="9.4" height="18.7"/>
		<rect x="1400.7" y="751.4" class="st3" width="11.3" height="18.7"/>
		<rect x="1354.1" y="774.6" class="st3" width="9.4" height="18"/>
		<rect x="1368.6" y="774.6" class="st3" width="11.3" height="18"/>
		<rect x="1385" y="774.6" class="st3" width="9.4" height="18"/>
		<rect x="1400.7" y="774.6" class="st3" width="11.3" height="18"/>
		<rect x="1354.1" y="797.7" class="st3" width="9.4" height="18"/>
		<rect x="1368.6" y="797.7" class="st3" width="11.3" height="18"/>
		<rect x="1385" y="797.7" class="st3" width="9.4" height="18"/>
		<rect x="1400.7" y="797.7" class="st3" width="11.3" height="18"/>
	</g>
	<g>
		<rect x="1454.7" y="569.8" class="st3" width="4.8" height="45.7"/>
		<rect x="1464.4" y="587.2" class="st3" width="6.5" height="28.3"/>
		<rect x="1411.8" y="607.8" class="st4" width="130.6" height="403.9"/>
		<g>
			<rect x="1471.4" y="623.9" class="st3" width="10.8" height="7.1"/>
			<rect x="1488.6" y="623.9" class="st3" width="10.2" height="7.1"/>
			<rect x="1505.9" y="623.9" class="st3" width="10.8" height="7.1"/>
			<rect x="1522.5" y="623.9" class="st3" width="11.3" height="7.1"/>
			<rect x="1471.4" y="632.9" class="st3" width="10.8" height="7.1"/>
			<rect x="1488.6" y="632.9" class="st3" width="10.2" height="7.1"/>
			<rect x="1505.9" y="632.9" class="st3" width="10.8" height="7.1"/>
			<rect x="1522.5" y="632.9" class="st3" width="11.3" height="7.1"/>
			<rect x="1471.4" y="641.9" class="st3" width="10.8" height="5.8"/>
			<rect x="1488.6" y="641.9" class="st3" width="10.2" height="5.8"/>
			<rect x="1505.9" y="641.9" class="st3" width="10.8" height="5.8"/>
			<rect x="1522.5" y="641.9" class="st3" width="11.3" height="5.8"/>
			<rect x="1471.4" y="650.3" class="st3" width="10.8" height="7.1"/>
			<rect x="1488.6" y="650.3" class="st3" width="10.2" height="7.1"/>
			<rect x="1505.9" y="650.3" class="st3" width="10.8" height="7.1"/>
			<rect x="1522.5" y="650.3" class="st3" width="11.3" height="7.1"/>
			<rect x="1471.4" y="659.3" class="st3" width="10.8" height="6.4"/>
			<rect x="1488.6" y="659.3" class="st3" width="10.2" height="6.4"/>
			<rect x="1505.9" y="659.3" class="st3" width="10.8" height="6.4"/>
			<rect x="1522.5" y="659.3" class="st3" width="11.3" height="6.4"/>
			<rect x="1471.4" y="668.3" class="st3" width="10.8" height="7.1"/>
			<rect x="1488.6" y="668.3" class="st3" width="10.2" height="7.1"/>
			<rect x="1505.9" y="668.3" class="st3" width="10.8" height="7.1"/>
			<rect x="1522.5" y="668.3" class="st3" width="11.3" height="7.1"/>
			<rect x="1471.4" y="677.3" class="st3" width="10.8" height="7.1"/>
			<rect x="1488.6" y="677.3" class="st3" width="10.2" height="7.1"/>
			<rect x="1505.9" y="677.3" class="st3" width="10.8" height="7.1"/>
			<rect x="1522.5" y="677.3" class="st3" width="11.3" height="7.1"/>
			<rect x="1471.4" y="686.4" class="st3" width="10.8" height="6.4"/>
			<rect x="1488.6" y="686.4" class="st3" width="10.2" height="6.4"/>
			<rect x="1505.9" y="686.4" class="st3" width="10.8" height="6.4"/>
			<rect x="1522.5" y="686.4" class="st3" width="11.3" height="6.4"/>
		</g>
		<rect x="1482.2" y="596.2" class="st4" width="40.4" height="19.3"/>
	</g>
	<rect x="1093.9" y="569.8" class="st3" width="5.7" height="45.7"/>
	<rect x="1080.7" y="587.2" class="st3" width="7.6" height="28.3"/>
	<rect x="1131" y="479.7" class="st4" width="95.6" height="532"/>
	<rect x="997.1" y="607.8" class="st4" width="139.6" height="403.9"/>
	<polygon class="st4" points="1291.5,581.4 1280.8,581.4 1280.8,599.4 1272.6,599.4 1272.6,569.8 1263.8,569.8 1263.8,599.4 
		1248,599.4 1248,1011.7 1327.9,1011.7 1327.9,599.4 1291.5,599.4 	"/>
	<rect x="1205.3" y="495.8" class="st3" width="10.7" height="19.3"/>
	<rect x="1190.2" y="495.8" class="st3" width="9.4" height="19.3"/>
	<rect x="1173.8" y="495.8" class="st3" width="11.3" height="19.3"/>
	<rect x="1159.4" y="495.8" class="st3" width="9.4" height="19.3"/>
	<rect x="1205.3" y="519.6" class="st3" width="10.7" height="18"/>
	<rect x="1190.2" y="519.6" class="st3" width="9.4" height="18"/>
	<rect x="1173.8" y="519.6" class="st3" width="11.3" height="18"/>
	<rect x="1159.4" y="519.6" class="st3" width="9.4" height="18"/>
	<rect x="1205.3" y="543.4" class="st3" width="10.7" height="17.4"/>
	<rect x="1190.2" y="543.4" class="st3" width="9.4" height="17.4"/>
	<rect x="1173.8" y="543.4" class="st3" width="11.3" height="17.4"/>
	<rect x="1159.4" y="543.4" class="st3" width="9.4" height="17.4"/>
	<rect x="1205.3" y="566" class="st3" width="10.7" height="18.7"/>
	<rect x="1190.2" y="566" class="st3" width="9.4" height="18.7"/>
	<rect x="1173.8" y="566" class="st3" width="11.3" height="18.7"/>
	<rect x="1159.4" y="566" class="st3" width="9.4" height="18.7"/>
	<rect x="1205.3" y="589.8" class="st3" width="10.7" height="18"/>
	<rect x="1190.2" y="589.8" class="st3" width="9.4" height="18"/>
	<rect x="1173.8" y="589.8" class="st3" width="11.3" height="18"/>
	<rect x="1159.4" y="589.8" class="st3" width="9.4" height="18"/>
	<rect x="1205.3" y="612.3" class="st3" width="10.7" height="18.7"/>
	<rect x="1190.2" y="612.3" class="st3" width="9.4" height="18.7"/>
	<rect x="1173.8" y="612.3" class="st3" width="11.3" height="18.7"/>
	<rect x="1159.4" y="612.3" class="st3" width="9.4" height="18.7"/>
	<rect x="1205.3" y="636.1" class="st3" width="10.7" height="18"/>
	<rect x="1190.2" y="636.1" class="st3" width="9.4" height="18"/>
	<rect x="1173.8" y="636.1" class="st3" width="11.3" height="18"/>
	<rect x="1159.4" y="636.1" class="st3" width="9.4" height="18"/>
	<rect x="1205.3" y="658" class="st3" width="10.7" height="19.3"/>
	<rect x="1190.2" y="658" class="st3" width="9.4" height="19.3"/>
	<rect x="1173.8" y="658" class="st3" width="11.3" height="19.3"/>
	<rect x="1159.4" y="658" class="st3" width="9.4" height="19.3"/>
	<rect x="1190.2" y="681.2" class="st3" width="9.4" height="18.7"/>
	<rect x="1173.8" y="681.2" class="st3" width="11.3" height="18.7"/>
	<rect x="1159.4" y="681.2" class="st3" width="9.4" height="18.7"/>
	<rect x="1141.7" y="681.2" class="st3" width="11.3" height="18.7"/>
	<rect x="1190.2" y="705" class="st3" width="9.4" height="18.7"/>
	<rect x="1173.8" y="705" class="st3" width="11.3" height="18.7"/>
	<rect x="1159.4" y="705" class="st3" width="9.4" height="18.7"/>
	<rect x="1141.7" y="705" class="st3" width="11.3" height="18.7"/>
	<rect x="1190.2" y="728.2" class="st3" width="9.4" height="18.7"/>
	<rect x="1173.8" y="728.2" class="st3" width="11.3" height="18.7"/>
	<rect x="1159.4" y="728.2" class="st3" width="9.4" height="18.7"/>
	<rect x="1141.7" y="728.2" class="st3" width="11.3" height="18.7"/>
	<rect x="1190.2" y="751.4" class="st3" width="9.4" height="18.7"/>
	<rect x="1173.8" y="751.4" class="st3" width="11.3" height="18.7"/>
	<rect x="1159.4" y="751.4" class="st3" width="9.4" height="18.7"/>
	<rect x="1141.7" y="751.4" class="st3" width="11.3" height="18.7"/>
	<rect x="1190.2" y="774.6" class="st3" width="9.4" height="18"/>
	<rect x="1173.8" y="774.6" class="st3" width="11.3" height="18"/>
	<rect x="1159.4" y="774.6" class="st3" width="9.4" height="18"/>
	<rect x="1141.7" y="774.6" class="st3" width="11.3" height="18"/>
	<rect x="1190.2" y="797.7" class="st3" width="9.4" height="18"/>
	<rect x="1173.8" y="797.7" class="st3" width="11.3" height="18"/>
	<rect x="1159.4" y="797.7" class="st3" width="9.4" height="18"/>
	<rect x="1141.7" y="797.7" class="st3" width="11.3" height="18"/>
	<rect x="1067.5" y="623.9" class="st3" width="12.6" height="7.1"/>
	<rect x="1048" y="623.9" class="st3" width="12" height="7.1"/>
	<rect x="1027.3" y="623.9" class="st3" width="12.6" height="7.1"/>
	<rect x="1007.1" y="623.9" class="st3" width="13.2" height="7.1"/>
	<rect x="1067.5" y="632.9" class="st3" width="12.6" height="7.1"/>
	<rect x="1048" y="632.9" class="st3" width="12" height="7.1"/>
	<rect x="1027.3" y="632.9" class="st3" width="12.6" height="7.1"/>
	<rect x="1007.1" y="632.9" class="st3" width="13.2" height="7.1"/>
	<rect x="1067.5" y="641.9" class="st3" width="12.6" height="5.8"/>
	<rect x="1048" y="641.9" class="st3" width="12" height="5.8"/>
	<rect x="1027.3" y="641.9" class="st3" width="12.6" height="5.8"/>
	<rect x="1007.1" y="641.9" class="st3" width="13.2" height="5.8"/>
	<rect x="1067.5" y="650.3" class="st3" width="12.6" height="7.1"/>
	<rect x="1048" y="650.3" class="st3" width="12" height="7.1"/>
	<rect x="1027.3" y="650.3" class="st3" width="12.6" height="7.1"/>
	<rect x="1007.1" y="650.3" class="st3" width="13.2" height="7.1"/>
	<rect x="1067.5" y="659.3" class="st3" width="12.6" height="6.4"/>
	<rect x="1048" y="659.3" class="st3" width="12" height="6.4"/>
	<rect x="1027.3" y="659.3" class="st3" width="12.6" height="6.4"/>
	<rect x="1007.1" y="659.3" class="st3" width="13.2" height="6.4"/>
	<rect x="1067.5" y="668.3" class="st3" width="12.6" height="7.1"/>
	<rect x="1048" y="668.3" class="st3" width="12" height="7.1"/>
	<rect x="1027.3" y="668.3" class="st3" width="12.6" height="7.1"/>
	<rect x="1007.1" y="668.3" class="st3" width="13.2" height="7.1"/>
	<rect x="1067.5" y="677.3" class="st3" width="12.6" height="7.1"/>
	<rect x="1048" y="677.3" class="st3" width="12" height="7.1"/>
	<rect x="1027.3" y="677.3" class="st3" width="12.6" height="7.1"/>
	<rect x="1007.1" y="677.3" class="st3" width="13.2" height="7.1"/>
	<rect x="1067.5" y="686.4" class="st3" width="12.6" height="6.4"/>
	<rect x="1048" y="686.4" class="st3" width="12" height="6.4"/>
	<rect x="1027.3" y="686.4" class="st3" width="12.6" height="6.4"/>
	<rect x="1007.1" y="686.4" class="st3" width="13.2" height="6.4"/>
	<rect x="1205.3" y="680.6" class="st3" width="66.1" height="331.1"/>
	<rect x="1226.7" y="688.3" class="st3" width="35.2" height="5.8"/>
	<rect x="1226.7" y="696.7" class="st3" width="35.2" height="6.4"/>
	<rect x="1226.7" y="705.7" class="st3" width="35.2" height="6.4"/>
	<rect x="1226.7" y="714.1" class="st3" width="35.2" height="6.4"/>
	<rect x="1226.7" y="723.1" class="st3" width="35.2" height="5.2"/>
	<rect x="1226.7" y="731.4" class="st3" width="35.2" height="6.4"/>
	<rect x="1020.3" y="596.2" class="st4" width="47.2" height="19.3"/>
	<rect x="1027.3" y="728.2" class="st3" width="101.3" height="283.5"/>
	<rect x="1036.7" y="862.1" class="st3" width="8.2" height="15.5"/>
	<rect x="1049.3" y="862.1" class="st3" width="7.6" height="15.5"/>
	<rect x="1061.9" y="862.1" class="st3" width="8.8" height="15.5"/>
	<rect x="1075.1" y="862.1" class="st3" width="8.2" height="15.5"/>
	<rect x="1036.7" y="844.1" class="st3" width="8.2" height="15.5"/>
	<rect x="1049.3" y="844.1" class="st3" width="7.6" height="15.5"/>
	<rect x="1061.9" y="844.1" class="st3" width="8.8" height="15.5"/>
	<rect x="1075.1" y="844.1" class="st3" width="8.2" height="15.5"/>
	<rect x="1036.7" y="825.4" class="st3" width="8.2" height="15.5"/>
	<rect x="1049.3" y="825.4" class="st3" width="7.6" height="15.5"/>
	<rect x="1061.9" y="825.4" class="st3" width="8.8" height="15.5"/>
	<rect x="1075.1" y="825.4" class="st3" width="8.2" height="15.5"/>
	<rect x="1036.7" y="808" class="st3" width="8.2" height="14.2"/>
	<rect x="1049.3" y="808" class="st3" width="7.6" height="14.2"/>
	<rect x="1061.9" y="808" class="st3" width="8.8" height="14.2"/>
	<rect x="1075.1" y="808" class="st3" width="8.2" height="14.2"/>
	<rect x="1036.7" y="789.4" class="st3" width="8.2" height="14.8"/>
	<rect x="1049.3" y="789.4" class="st3" width="7.6" height="14.8"/>
	<rect x="1061.9" y="789.4" class="st3" width="8.8" height="14.8"/>
	<rect x="1075.1" y="789.4" class="st3" width="8.2" height="14.8"/>
	<rect x="1036.7" y="771.4" class="st3" width="8.2" height="14.2"/>
	<rect x="1049.3" y="771.4" class="st3" width="7.6" height="14.2"/>
	<rect x="1061.9" y="771.4" class="st3" width="8.8" height="14.2"/>
	<rect x="1075.1" y="771.4" class="st3" width="8.2" height="14.2"/>
	<rect x="1036.7" y="752" class="st3" width="8.2" height="15.5"/>
	<rect x="1049.3" y="752" class="st3" width="7.6" height="15.5"/>
	<rect x="1061.9" y="752" class="st3" width="8.8" height="15.5"/>
	<rect x="1075.1" y="752" class="st3" width="8.2" height="15.5"/>
	<rect x="1036.7" y="734" class="st3" width="8.2" height="15.5"/>
	<rect x="1049.3" y="734" class="st3" width="7.6" height="15.5"/>
	<rect x="1061.9" y="734" class="st3" width="8.8" height="15.5"/>
	<rect x="1075.1" y="734" class="st3" width="8.2" height="15.5"/>
	<rect x="1286.6" y="699.2" class="st3" width="44.7" height="62.5"/>
	<rect x="1296.7" y="707.6" class="st3" width="11.3" height="9.7"/>
	<rect x="1313" y="707.6" class="st3" width="8.8" height="9.7"/>
	<rect x="1296.7" y="721.1" class="st3" width="11.3" height="10.3"/>
	<rect x="1313" y="721.1" class="st3" width="8.8" height="10.3"/>
	<rect x="1357.7" y="723.7" class="st4" width="16.4" height="18.7"/>
	<rect x="1365.9" y="712.1" class="st4" width="8.2" height="34.8"/>
	<rect x="1270.9" y="735.3" class="st3" width="133.4" height="276.4"/>
	<rect x="1229.8" y="957.4" class="st3" width="12.6" height="15.4"/>
	<rect x="1249.3" y="957.4" class="st3" width="12" height="15.4"/>
	<rect x="1268.8" y="957.4" class="st3" width="13.8" height="15.4"/>
	<rect x="1289" y="957.4" class="st3" width="13.2" height="15.4"/>
	<rect x="1229.8" y="939.4" class="st3" width="12.6" height="15.5"/>
	<rect x="1249.3" y="939.4" class="st3" width="12" height="15.5"/>
	<rect x="1268.8" y="939.4" class="st3" width="13.8" height="15.5"/>
	<rect x="1289" y="939.4" class="st3" width="13.2" height="15.5"/>
	<rect x="1229.8" y="920.7" class="st3" width="12.6" height="15.4"/>
	<rect x="1249.3" y="920.7" class="st3" width="12" height="15.4"/>
	<rect x="1268.8" y="920.7" class="st3" width="13.8" height="15.4"/>
	<rect x="1289" y="920.7" class="st3" width="13.2" height="15.4"/>
	<rect x="1229.8" y="903.3" class="st3" width="12.6" height="14.2"/>
	<rect x="1249.3" y="903.3" class="st3" width="12" height="14.2"/>
	<rect x="1268.8" y="903.3" class="st3" width="13.8" height="14.2"/>
	<rect x="1289" y="903.3" class="st3" width="13.2" height="14.2"/>
	<rect x="1229.8" y="884.7" class="st3" width="12.6" height="14.8"/>
	<rect x="1249.3" y="884.7" class="st3" width="12" height="14.8"/>
	<rect x="1268.8" y="884.7" class="st3" width="13.8" height="14.8"/>
	<rect x="1289" y="884.7" class="st3" width="13.2" height="14.8"/>
	<rect x="1229.8" y="866.6" class="st3" width="12.6" height="14.2"/>
	<rect x="1249.3" y="866.6" class="st3" width="12" height="14.2"/>
	<rect x="1268.8" y="866.6" class="st3" width="13.8" height="14.2"/>
	<rect x="1289" y="866.6" class="st3" width="13.2" height="14.2"/>
	<rect x="1229.8" y="847.3" class="st3" width="12.6" height="15.4"/>
	<rect x="1249.3" y="847.3" class="st3" width="12" height="15.4"/>
	<rect x="1268.8" y="847.3" class="st3" width="13.8" height="15.4"/>
	<rect x="1289" y="847.3" class="st3" width="13.2" height="15.4"/>
	<rect x="1229.8" y="829.3" class="st3" width="12.6" height="15.5"/>
	<rect x="1249.3" y="829.3" class="st3" width="12" height="15.5"/>
	<rect x="1268.8" y="829.3" class="st3" width="13.8" height="15.5"/>
	<rect x="1289" y="829.3" class="st3" width="13.2" height="15.5"/>
	<g>
		<path class="st5" d="M1481.9,363.5h550.6V144h-550.6V363.5z M1492.2,154.4h529.7v198.8h-529.7V154.4z"/>
	</g>
	<g>
		<path class="st5" d="M977.1,363.5h515.1V144H977.1V363.5z M987.5,154.4h494.5v198.8H987.5V154.4z"/>
	</g>
	<g>
		<path class="st5" d="M472.3,363.5h515.1V144H472.3V363.5z M482.7,154.4h494.5v198.8H482.7V154.4z"/>
	</g>
	<g>
		<path class="st5" d="M-32.5,363.5h515.1V144H-32.5V363.5z M-22.1,154.4h494.5v198.8H-22.1V154.4z"/>
	</g>
	<g>
		<path class="st5" d="M1481.9,1021.9h550.6V353.1h-550.6V1021.9z M1492.2,363.5h529.7v648.1h-529.7V363.5z"/>
	</g>
	<g>
		<path class="st5" d="M977.1,1021.9h515.1V353.1H977.1V1021.9z M987.5,363.5h494.5v648.1H987.5V363.5z"/>
	</g>
	<g>
		<path class="st5" d="M472.3,1021.9h515.1V353.1H472.3V1021.9z M482.7,363.5h494.5v648.1H482.7V363.5z"/>
	</g>
	<g>
		<path class="st5" d="M-32.5,1021.9h515.1V353.1H-32.5V1021.9z M-22.1,363.5h494.5v648.1H-22.1V363.5z"/>
	</g>
</g>
<rect x="-8.2" y="1086.9" class="st6" width="2016.3" height="453.8"/>
<g>
	<ellipse class="st7" cx="494.7" cy="1179.3" rx="131.3" ry="14.8"/>
	<path class="st8" d="M1127,930.3l-19.8-0.2l-0.7,13l-2.4,0l-0.6,12.5l4.3,0.1l19.3-0.2C1127.5,940.5,1127,930.3,1127,930.3z"/>
	<ellipse class="st7" cx="1010.2" cy="1164.8" rx="610" ry="9.9"/>
	<path class="st9" d="M1119.3,995.4h-6.1c-4.6,0-8.3,3.4-8.3,8.4h22.7C1127.6,998.8,1123.9,995.4,1119.3,995.4z"/>
	<g>
		<path class="st8" d="M1144,956.6c-6.2,0-10.9,5-10.9,11.2v46.1h21.8v-46.1C1154.9,961.6,1150.2,956.6,1144,956.6z"/>
		<path class="st10" d="M1160.3,979.9v-44.4c-15.2,0-27.5,12.3-27.5,27.5v17H1160.3z"/>
	</g>
	<g>
		<path class="st8" d="M1238,956.6c-6.2,0-10.9,5-10.9,11.2v42.8h21.8v-42.8C1248.9,961.6,1244.2,956.6,1238,956.6z"/>
		<polyline class="st11" points="1227.1,985.4 1227.1,975.3 1248.9,975.3 		"/>
		<path class="st10" d="M1221.8,979.9v-44.4c15.2,0,27.5,12.3,27.5,27.5v17H1221.8z"/>
	</g>
	<path class="st12" d="M1150,1036v19.1c0,5.1,4.1,9.2,9.2,9.2h64.5c5.1,0,9.2-4.1,9.2-9.2V1036H1150z"/>
	<path class="st13" d="M1210.7,932.1h-39.4c-12.4,0-22.5,10.1-22.5,22.5v82.2h84.4v-82.2C1233.1,942.2,1223.1,932.1,1210.7,932.1z"
		/>
	<path class="st14" d="M1195.7,960.8v18c0,7.1,5.7,12.8,12.8,12.8c7.1,0,12.8-5.7,12.8-12.8v-18H1195.7z"/>
	<g>
		<path class="st8" d="M1165.1,888l0.3-14l51.8,1.1l-0.6,28.7c-0.3,12.9-11,23.1-23.8,22.8l-5.1-0.1c-12.9-0.3-23.1-11-22.8-23.8
			l0-1.4c-2.9-0.1-5.2-3.1-5.2-6.8C1159.8,890.9,1162.2,888,1165.1,888"/>
		<path class="st15" d="M1190.6,916.6c-3.3-0.1-6-2.3-5.9-5l12.1,0.3C1196.7,914.5,1193.9,916.6,1190.6,916.6"/>
		<g>
			<g>
				<defs>
					
						<rect id="SVGID_1_" x="1186.2" y="889.3" transform="matrix(2.204766e-02 -0.9998 0.9998 2.204766e-02 275.2191 2066.9219)" width="15.9" height="6.9"/>
				</defs>
				<use xlink:href="#SVGID_1_"  style="overflow:visible;fill:#C69155;"/>
				<clipPath id="SVGID_2_">
					<use xlink:href="#SVGID_1_"  style="overflow:visible;"/>
				</clipPath>
				
					<rect x="1186.2" y="889.3" transform="matrix(2.204766e-02 -0.9998 0.9998 2.204766e-02 275.2191 2066.9219)" class="st16" width="15.9" height="6.9"/>
			</g>
		</g>
		<path class="st17" d="M1165.7,870.2c0.2-8.8,2.6-10,9.4-10v0l9.3,0.2c19.7,0.4,22.1-8.2,22.1-8.2c3.8,6.8-0.5,12-0.5,12
			c11.9,1.1,16.4-10.4,16.4-10.4c6.5,18.8-2.6,26.1-5.3,27.8l0.1-4.7l-47.6-1.3l-0.1,4h0c-0.1,5-2,8.2-4.3,8.1l0.2-7.6l0.1-3.9h0
			L1165.7,870.2z"/>
		<g>
			
				<ellipse transform="matrix(2.204766e-02 -0.9998 0.9998 2.204766e-02 292.3224 2074.623)" class="st18" cx="1206.6" cy="887.9" rx="2" ry="2"/>
			
				<ellipse transform="matrix(2.204766e-02 -0.9998 0.9998 2.204766e-02 268.6108 2049.2888)" class="st18" cx="1181.8" cy="887.3" rx="2" ry="2"/>
		</g>
		
			<rect x="1174.6" y="912.5" transform="matrix(-0.9998 -2.204766e-02 2.204766e-02 -0.9998 2360.7446 1867.3761)" class="st17" width="32.2" height="16.4"/>
		<path class="st19" d="M1185.6,920.1c-3.1-1.8-5.2-5.3-5.1-9.2l10.3,1.5l10.4-1.1c-0.1,3.9-2.3,7.3-5.5,9l0,0L1185.6,920.1
			L1185.6,920.1z"/>
		<path class="st20" d="M1190.6,921.5c-1.8,0-3.5-0.5-5-1.4c1.5-0.8,3.2-1.2,5.1-1.2s3.5,0.5,5,1.4
			C1194.1,921.1,1192.4,921.6,1190.6,921.5L1190.6,921.5z"/>
		<path class="st21" d="M1183,911c0,1.4,1.1,2.6,2.5,2.6l10.4,0.2c1.4,0,2.6-1.1,2.6-2.5L1183,911L1183,911z"/>
		<path class="st22" d="M1218.4,882.7l-16.3-0.4c-1.3,0-2.6,0.6-3.3,1.7c-1.1-1.2-2.7-1.9-4.5-1.9c-1.8,0-3.4,0.6-4.6,1.7
			c-0.7-1.1-1.9-1.9-3.3-1.9l-19.5-0.4c-0.7,0-1.3,0.6-1.3,1.3c0,0.7,0.6,1.3,1.3,1.3l3.9,0.1l-0.1,3.9c-0.1,3.6,2.8,6.6,6.4,6.6
			l6.5,0.1c3.6,0.1,6.6-2.8,6.6-6.4c0-2.2,1.8-3.9,4-3.8c2.2,0,3.9,1.8,3.8,4c-0.1,3.6,2.8,6.6,6.4,6.6l6.5,0.1
			c3.6,0.1,6.6-2.8,6.6-6.4l0.1-3.9l0.6,0c0.7,0,1.3-0.6,1.3-1.3C1219.7,883.3,1219.2,882.8,1218.4,882.7z M1187.7,888.6
			c0,2.1-1.8,3.9-4,3.8l-6.5-0.1c-2.1,0-3.9-1.8-3.8-4l0.1-3.9l13,0.3c0.7,0,1.3,0.6,1.3,1.3L1187.7,888.6z M1215.1,889.2
			c0,2.1-1.8,3.9-4,3.8l-6.5-0.1c-2.1,0-3.9-1.8-3.8-4l0.1-2.6c0-0.7,0.6-1.3,1.3-1.3l13,0.3L1215.1,889.2z"/>
		<path class="st23" d="M1216.9,901.4c-5.7-0.1-10.5,4.4-10.6,10.1c0,0.3,0,0.5-0.1,0.8c-1.5-2.2-4-3.6-6.8-3.7l-8.6-0.2
			c-0.1,4.8,3.7,8.7,8.4,8.8l5.8,0.1c-2.4,5.6-8.1,9.5-14.6,9.4c-6.5-0.1-12-4.3-14.2-10l5.8,0.1c4.8,0.1,8.7-3.7,8.8-8.4l-8.6-0.2
			c-2.8-0.1-5.4,1.3-7,3.4c0-0.3,0-0.5,0-0.8c0.1-5.7-4.4-10.5-10.1-10.6l-5.9,31c2.9,0.1,5.2-2.2,5.3-5.1l-0.2,10.4
			c2.9,0.1,5.2-2.2,5.3-5.1l-0.2,10.4c2.9,0.1,5.2-2.2,5.3-5.1l-0.2,10.4c2.9,0.1,5.2-2.2,5.3-5.1l-0.1,5.2c2.9,0.1,5.2-2.2,5.3-5.1
			l-0.1,5.2c2.9,0.1,5.2-2.2,5.3-5.1c-0.1,2.9,2.2,5.2,5.1,5.3l0.1-5.2c-0.1,2.9,2.2,5.2,5.1,5.3l0.1-5.2c-0.1,2.9,2.2,5.2,5.1,5.3
			l0.2-10.4c-0.1,2.9,2.2,5.2,5.1,5.3l0.2-10.4c-0.1,2.9,2.2,5.2,5.1,5.3l0.2-10.4c-0.1,2.9,2.2,5.2,5.1,5.3L1216.9,901.4z"/>
	</g>
	<rect x="1195.7" y="960.8" class="st24" width="25.6" height="3.8"/>
	<g>
		<rect x="1160" y="1072.3" class="st25" width="23.3" height="68.2"/>
		<rect x="1160" y="1072.3" class="st26" width="7.1" height="68.2"/>
		<rect x="1198.3" y="1072.3" class="st25" width="23.3" height="68.2"/>
		<rect x="1198.3" y="1072.3" class="st26" width="7.1" height="68.2"/>
	</g>
	<path class="st8" d="M1249.3,997.5c-6.3,0-11.3,6.3-11.3,11.3h22.6C1260.6,1003.8,1255.6,997.5,1249.3,997.5z"/>
	<path class="st27" d="M1170.3,1039.3c-8.2,0-14.9,6.7-14.9,14.9v92.7h29.8v-92.7C1185.1,1046,1178.5,1039.3,1170.3,1039.3z"/>
	<path class="st27" d="M1211.3,1039.3c-8.2,0-14.9,6.7-14.9,14.9v92.7h29.8v-92.7C1226.2,1046,1219.5,1039.3,1211.3,1039.3z"/>
	<g>
		<path class="st28" d="M1238.3,999.8c0,1.1-0.9,1.9-1.9,1.9h-90.8c-1.1,0-1.9-0.9-1.9-1.9v-64.5c0-1.1,0.9-1.9,1.9-1.9h90.8
			c1.1,0,1.9,0.9,1.9,1.9V999.8z"/>
	</g>
	<rect x="1143.2" y="1002.1" class="st29" width="95.6" height="6.7"/>
	<g>
		<path class="st8" d="M882.7,981.3c-5.3,0-9.6,4.8-9.6,10.8v44.9h19.2v-44.9C892.3,986.1,888,981.3,882.7,981.3z"/>
	</g>
	<path class="st30" d="M958.7,1008.4c0,1.2-0.9,2.1-2.1,2.1h-52.9c-1.2,0-2.1-0.9-2.1-2.1v-2.5c0-1.2,0.9-2.1,2.1-2.1h52.9
		c1.2,0,2.1,0.9,2.1,2.1V1008.4z"/>
	<path class="st31" d="M619.8,1035.7v19.4c0,5.1,3.9,9.1,9,9.1h64.5c5.1,0,8.7-4,8.7-9.1v-19.4H619.8z"/>
	<path class="st32" d="M687,927.9c32.7,0,42.1,30.7,46.4,50.4l-18.3,2.5c-4.9-22.9-18.4-29-18.4-29L687,927.9z"/>
	<path class="st32" d="M690.7,1030l-16.9,7.4h-35.6v-86.7c0-12.6,10.9-22.4,23.6-22.4h12c0,0,11.4,21.6,11.4,34.2L690.7,1030z"/>
	<path class="st32" d="M673.5,1037.4h35.2v-86.7c0-12.6-10.2-22.4-22.9-22.4h-12.4V1037.4z"/>
	<g>
		<path class="st8" d="M737.8,1055l-19.6,0.6l-0.3-12.3l-2.4,0.1l-0.3-12.3l4.3-0.4h19.1C738.6,1045.7,737.8,1055,737.8,1055z"/>
		<path class="st32" d="M715,980.8c-0.4-1.9-0.9-3.6-1.4-5.2c-5.7-18.6-17-23.8-17-23.8l-9.7-23.8c29.6,0,40.1,25.1,45,44.5
			c0.5,2,1,3.7,1.4,5.5l0,0c4,18.2,5.1,37.6,5.2,52.7h0.3l0,0h-20.1l0,0h0.7c0.1-21.8-2-39-4.4-50.2"/>
	</g>
	<g>
		<path class="st33" d="M646.6,876.3v-16.8h58.7v33c0,14.8-11.2,27.3-26.1,27.3h-5.9c-14.8,0-26.8-12.5-26.8-27.3V891
			c-3.4,0-6.1-3.4-6.1-7.7c0-4.2,2.8-7.7,6.1-7.7"/>
		<path class="st34" d="M676.6,907.1c-3.8,0-7-2.2-7-5.6h13.9C683.5,904.8,680.4,907.1,676.6,907.1"/>
		<g class="st0">
			<g>
				<defs>
					<rect id="SVGID_3_" x="676.8" y="871.3" width="6.7" height="18.5"/>
				</defs>
				<clipPath id="SVGID_4_">
					<use xlink:href="#SVGID_3_"  style="overflow:visible;"/>
				</clipPath>
				<rect x="676.8" y="871.3" class="st35" width="6.7" height="18.5"/>
			</g>
		</g>
		<path class="st36" d="M646.6,854.8c0-10.2,3.4-11.4,10.1-11.5v-0.6h11c22.7,0,25.3-9.7,25.3-9.7c4.6,7.8-0.2,14-0.2,14
			c13.7,0.9,18.3-12.3,18.3-12.3c8,21.5-2.4,30.2-5.8,32.2v-5.8h-53.7v5h-0.3c0,5-1.4,9.4-4.7,9.4v-9.2v-5.3l0,0V854.8z"/>
		<g>
			<circle class="st34" cx="694.3" cy="873.5" r="2.2"/>
			<circle class="st34" cx="665.7" cy="873.5" r="2.2"/>
		</g>
	</g>
	<polygon class="st37" points="674.3,980.1 689.6,928.3 659,928.3 	"/>
	<polygon class="st32" points="674.3,938.5 680.9,928.3 667.6,928.3 	"/>
	<polygon class="st32" points="674.3,932.5 667.6,980.3 680.9,980.3 	"/>
	<g>
		<circle class="st38" cx="675.5" cy="982.2" r="1.6"/>
		<circle class="st38" cx="675.5" cy="994.5" r="1.6"/>
		<circle class="st38" cx="675.5" cy="1006.8" r="1.6"/>
		<circle class="st38" cx="675.5" cy="1019.2" r="1.6"/>
	</g>
	<rect x="619.8" y="1035.7" class="st39" width="82.2" height="8.4"/>
	<g>
		<rect x="629.6" y="1072.3" class="st25" width="23.3" height="68.2"/>
		<rect x="629.6" y="1072.3" class="st26" width="7.1" height="68.2"/>
		<rect x="667.8" y="1072.3" class="st25" width="23.3" height="68.2"/>
		<rect x="667.8" y="1072.3" class="st26" width="7.1" height="68.2"/>
	</g>
	<rect x="586.2" y="1018.9" class="st40" width="813.6" height="139.2"/>
	<path class="st26" d="M966.3,997.9c-6.3,0-11.3,5.1-11.3,11.3h22.7C977.6,1003,972.5,997.9,966.3,997.9z"/>
	<g>
		<path class="st41" d="M531.5,987.5l0.7,4.6l1.9,11.3v0l29.7-9.3l0,0l20.5-8.9l-6.3-17.1l-10.8,4l-0.8-2.1l-10.4,3.8l1.4,3.7l0,0
			l0,0C557.5,977.5,542.1,985.8,531.5,987.5"/>
		<g>
			<polygon class="st42" points="511,1005.7 494.7,976.8 499.3,947.7 522.8,988.6 550.1,979.8 556.6,997.3 522.5,1009.7 			"/>
		</g>
		<path class="st43" d="M450.3,1023.1v93.1c0,8.4-11.7,8.4-11.7,0V1024c0,0-0.7-32-27.4-33.6h-17.4c-3.9,0-7.2-2.9-7.2-6.8
			c0-2,0.8-3.5,2.1-4.8c1.3-1.3,3-1.9,5-1.9h31.7l12.7,14c7.8,8.6,12.1,19.6,12.4,31.1C450.4,1022.4,450.3,1022.7,450.3,1023.1z"/>
		<g>
			<path d="M550,1036.1c-10.1-10.9-13.6-5.4-30.8-7.7c-17.2-2.3-26.4-6.9-26.4-6.9l-15.5,4.4l6.3,20.9c0,0,23.8,0,39.3,5
				c12.1,3.9,19.3,18.6,21.9,24.8l0.3-0.1c0.4,1.5,0.8,2.9,0.8,2.9s15.2,20.1,21.6,34.5c1.8,4,12.1,27.6,13,31h16.9
				C596.2,1141.4,557.1,1043.6,550,1036.1z"/>
		</g>
		<g>
			<path class="st44" d="M591.9,1144.7c-1.3-1.7-41.7-101.5-45.1-104.7c-9.7-9.3-17.3-1.4-34.5-3.6c-4.8-0.6-14-3.3-16.7-5.1
				c-6.3-4.1-13.1-7-13.1-7l-28.8,6.4v50.4c0,0,45.2-14.7,60.7-10c5.3,1.6,11.5-7.5,13.7-1.8c1.6,4,3.3,8,5.1,11.9l5.7-2.5
				c6.9,15.6,29.2,64.3,30.3,66H591.9z"/>
		</g>
		<g>
			<path class="st45" d="M450.3,1086l87.6-0.2l0-14.8c0-5.9-4.4-10.2-10.4-10.2h-77.3V1086z"/>
			<g>
				<path class="st45" d="M561.1,1144.7v10.1h60.4c6.7,0,6.7-10.1,0-10.1H561.1z"/>
				<polygon class="st43" points="532.5,1100.3 532.5,1113.1 542.6,1127.4 561.5,1154.7 561.6,1154.8 570.9,1154.8 563.9,1144.6 
					542.7,1114 533,1100.1 				"/>
			</g>
			<g>
				<polygon class="st43" points="510.7,1163.2 530.5,1163.2 514,1153.5 514.8,1152.1 531.3,1161.6 521.7,1145 523.1,1144.2 
					532.5,1160.7 532.5,1141.4 534.2,1141.4 534.2,1160.7 543.8,1144.2 545.1,1145 535.6,1161.5 552.1,1152 552.9,1153.5 
					536.4,1163.2 556,1163.2 556,1164.9 536.4,1164.9 552.9,1174.2 552.1,1175.5 535.6,1165.9 545.1,1182.4 543.8,1183.2 
					534.2,1166.6 534.2,1185 532.5,1185 532.5,1166.6 523.1,1183.2 521.7,1182.4 531.3,1165.8 514.7,1175.4 514,1174.2 
					530.5,1164.9 510.7,1164.9 				"/>
				<path class="st46" d="M510.3,1163.7c0,12.8,10.4,23.2,23.2,23.2c12.8,0,23.2-10.4,23.2-23.2c0-12.8-10.4-23.2-23.2-23.2
					C520.6,1140.5,510.3,1150.9,510.3,1163.7z M515.5,1163.7c0-9.9,8-17.9,17.9-17.9c9.9,0,17.9,8,17.9,17.9c0,9.9-8,17.9-17.9,17.9
					C523.5,1181.6,515.5,1173.6,515.5,1163.7z"/>
				<path class="st43" d="M513.1,1163.7c0,11.2,9.1,20.3,20.3,20.3c11.2,0,20.3-9.1,20.3-20.3s-9.1-20.3-20.3-20.3
					C522.2,1143.4,513.1,1152.5,513.1,1163.7z M517.7,1163.7c0-8.7,7-15.7,15.7-15.7c8.7,0,15.7,7,15.7,15.7c0,8.7-7,15.7-15.7,15.7
					C524.8,1179.4,517.7,1172.4,517.7,1163.7z"/>
			</g>
			<path class="st43" d="M529.2,1022v140.1c0,3.7,1.9,6.7,4.6,6.7h-0.6c2.7,0,4.4-3,4.4-6.7v-132l-9.1-8.1H529.2z"/>
			<g>
				<polygon class="st43" points="379.2,1131.6 439.5,1116.8 379.8,1099.4 380.6,1096.8 440.3,1114.1 397.3,1069.3 399.2,1067.4 
					442.2,1112.2 427.4,1051.9 430.1,1051.2 444.9,1111.6 462.2,1051.9 464.9,1052.7 447.6,1112.3 492.4,1069.3 494.3,1071.3 
					449.5,1114.3 509.8,1099.5 510.5,1102.1 450.1,1117 509.8,1134.3 509,1136.9 449.4,1119.6 492.4,1164.4 490.4,1166.4 
					447.4,1121.5 462.2,1181.9 459.5,1182.5 444.7,1122.2 427.4,1181.8 424.7,1181.1 442.1,1121.4 397.2,1164.4 395.3,1162.4 
					440.1,1119.4 379.8,1134.3 				"/>
				<path class="st46" d="M374.3,1116.3c0,38.9,31.6,70.5,70.5,70.5s70.5-31.6,70.5-70.5c0-38.9-31.6-70.5-70.5-70.5
					S374.3,1077.5,374.3,1116.3z M380.9,1116.3c0-35.3,28.6-63.9,63.9-63.9s63.9,28.6,63.9,63.9c0,35.3-28.6,63.9-63.9,63.9
					S380.9,1151.6,380.9,1116.3z"/>
				<path class="st43" d="M378.2,1116.3c0,36.7,29.9,66.6,66.6,66.6s66.6-29.9,66.6-66.6c0-36.7-29.9-66.6-66.6-66.6
					S378.2,1079.6,378.2,1116.3z M384.4,1116.3c0-33.3,27-60.4,60.4-60.4c33.3,0,60.4,27,60.4,60.4c0,33.3-27,60.4-60.4,60.4
					C411.5,1176.7,384.4,1149.7,384.4,1116.3z"/>
				<circle class="st43" cx="444.8" cy="1116.3" r="6.8"/>
				<circle class="st45" cx="444.8" cy="1116.3" r="4.3"/>
			</g>
			<circle class="st45" cx="533.4" cy="1163.7" r="3.3"/>
		</g>
		<g>
			<defs>
				<path id="SVGID_5_" d="M481.5,945.3c0,0,12.8-2,18.3,2.7l1.5,18l5.4,62.3c0,0-23.4-0.7-53.3,15.7c-1.1-32.9-12.8-68.5-12.8-68.5
					c2.9-5.6,3.8-19.6,4-27.4c8.8-3,9-3,13.1-3h2.6"/>
			</defs>
			<clipPath id="SVGID_6_">
				<use xlink:href="#SVGID_5_"  style="overflow:visible;"/>
			</clipPath>
			<g class="st47">
				<path class="st42" d="M489.6,1041.9l-15.9,7.2h-33.4v-82c0-11.9,10.2-22,22.1-22h11.3c0,0,10.7,20.9,10.7,32.7L489.6,1041.9z"/>
				<path class="st42" d="M473.8,1049.1h31.9v-82c0-11.9-8.8-22-20.7-22h-11.2V1049.1z"/>
				<path class="st48" d="M493.6,975.2c-15.8,13.1-53.4,11.6-53.4,11.6s0-29.8,0-36.3c10.1-5.6,21.8-4.9,21.8-4.9l4.7,4.9l6.8,6.6
					l6.8-6.6c0,0,3.1-4.1,4.6-4.9c1.5-0.9,19.9,1.7,21.4,5.8C507.8,955.1,505.8,965.1,493.6,975.2z"/>
				<g>
					<g>
						<path class="st49" d="M459.3,975.8c2.6-0.8,3.6-3.5,2.2-6c-1.4-2.5-4.7-3.8-7.3-2.9c-2.6,0.8-3.6,3.5-2.2,6
							C453.4,975.3,456.7,976.6,459.3,975.8z"/>
						<path class="st50" d="M459.3,975.8c2.6-0.8,3.6-3.5,2.2-6c-1.4-2.5-4.7-3.8-7.3-2.9c-2.6,0.8-3.6,3.5-2.2,6
							C453.4,975.3,456.7,976.6,459.3,975.8z"/>
						<path class="st51" d="M461.2,969.9c-0.1-0.2-0.2-0.4-0.4-0.6l-0.2,0.8l0,0.1l0,0.1h0h0h-0.8v0c-0.2,0-0.3,0.1-0.3,0.3
							c0,0.1,0,0.1,0.1,0.2l0.1,0.1l0.6,0.7l0,0l0,0c0.2,0.2,0.2,0.5,0.1,0.7c-0.1,0.3-0.3,0.7-0.6,0.9c-0.3,0.2-0.6,0.5-0.9,0.5
							h-1.2h-0.1h0l0-0.2l0-0.2l0.3-0.9l0-0.2l0-0.2h0h0h0.5c0,0,0.3,0,0.3,0h0c0.2,0,0.3,0,0.3-0.1c0-0.1,0-0.1-0.1-0.1l0,0
							l-0.6-0.7l0,0l0,0c-0.2-0.2-0.2-0.5-0.1-0.7c0.1-0.3,0.3-0.8,0.6-1c0.3-0.2,0.6-0.6,0.9-0.6h1.1c-1.2-1.7-3.2-2.1-5.1-2
							l-0.3,1.1l0,0.4l0,0.4h0h0h-1h-0.2h0l0-0.4l0-0.2l0.2-0.8c-2.4,0.8-3.3,3.3-2,5.5c0.1,0.1,0.1,0.2,0.2,0.3l1.2-3.9l0-0.3
							l0-0.3h0h0.1h1h0.1h0l0,0.3l0,0.2l-1.2,3.9l0,0.3l0,0.3h0h0h-1h-0.1c1.4,1.7,4.3,2.8,6.6,2.1
							C461.6,974.9,462.6,972.2,461.2,969.9z M457.3,972.2c-0.1,0.3-0.3,0.7-0.6,0.9c-0.3,0.2-0.6,0.5-0.9,0.5h-1.2h-0.1h0l0-0.2
							l0-0.2l0.3-0.9l0-0.2l0-0.2h0h0h0.5c0,0,0.3,0,0.3,0h0c0.2,0,0.3,0,0.3-0.1c0-0.1,0-0.1-0.1-0.1l0,0l-0.6-0.7l0,0l0,0
							c-0.2-0.2-0.2-0.5-0.1-0.7c0.1-0.3,0.3-0.8,0.6-1c0.3-0.2,0.6-0.6,0.9-0.6h1.2h0.1h0l0,0.3l0,0.2l-0.3,0.9l0,0.1l0,0.1h0h0
							h-0.8v0c-0.2,0-0.3,0.1-0.3,0.3c0,0.1,0,0.1,0.1,0.2l0.1,0.1l0.6,0.7l0,0l0,0C457.4,971.6,457.4,971.9,457.3,972.2z"/>
					</g>
				</g>
				<path class="st52" d="M440.9,986.9c0,0,66,3,66.2-36.7"/>
			</g>
		</g>
		<polygon class="st41" points="461.4,945.1 473.7,957.4 486.1,945.1 		"/>
		<path class="st43" d="M538.4,1032.3H525h-74.7v-7.6c0-0.3,0.1-0.8,0.1-0.8h79.9C534.9,1023.9,538.4,1027.3,538.4,1032.3z"/>
		<path class="st41" d="M424.6,1030.1c10.9,13.4,11.1,11.3,22.1,20.2l0,0c10.3,8.3,17.8,13.3,17.8,13.3l11.7-14l-8.8-7.4l1.4-1.7
			l-8.4-7.1l-2.6,3l0,0l0,0c-16.6-13.2-15.6-8.5-22.3-16.8l-2.5,2.4L424.6,1030.1L424.6,1030.1z"/>
		<g>
			<path class="st41" d="M447.7,884.7L447.7,884.7l-0.4,13c-3.1-0.1-5.8,3-5.9,7c-0.1,3.9,2.3,7.2,5.5,7.3l0,1.4
				c-0.4,13.7,10.4,25.2,24.1,25.6l5.5,0.2c13.7,0.4,25.2-10.4,25.6-24.1l0.7-23.7l0.1-5l-50.7-1.3l-0.1,4.8h0
				c-0.1,5-2.2,8.2-4.7,8.2l0.2-8.5L447.7,884.7z M492.3,899.1c-1.1,0-1.7-1-1.7-2.1v0c0-1.1,0.3-2.1,1.5-2.1h0
				c1.1,0,2.2,1.1,2.2,2.2C494.3,898.1,493.5,899.1,492.3,899.1z M481.6,911.5l-7.3-0.2l0.5-16.9l7.3,0.2L481.6,911.5z M467.9,922.9
				l12.9,0.4c-0.1,2.9-3,5.1-6.6,5C470.7,928.2,467.8,925.8,467.9,922.9z M465.3,898.3c-1.2,0-1.9-0.7-1.9-1.8
				c0-1.1,1.1-1.7,2.3-1.7h0c1.1,0,1.5,0.4,1.5,1.5v0C467.1,897.4,466.4,898.3,465.3,898.3z"/>
			<path class="st53" d="M474.2,928.3c-3.6-0.1-6.4-2.5-6.3-5.4l12.9,0.4C480.8,926.2,477.8,928.4,474.2,928.3z"/>
			
				<rect x="469.7" y="899.3" transform="matrix(2.891041e-02 -0.9996 0.9996 2.891041e-02 -438.2383 1354.8129)" class="st54" width="16.9" height="7.3"/>
			<path class="st55" d="M508.6,861.7c6.8,20.1-2.9,27.8-5.9,29.6l0.1-5l-50.7-1.3l-0.1,4.8h0c-0.1,5-2.2,8.2-4.7,8.2l0.2-8.5
				l0.1-4.7h0l0.1-1.9l-0.2-4.3c0.3-9.4,4.5-10.4,9.5-10.4v0l10.4,0.3c21,0.6,23.8-8.6,23.8-8.6c4,7.3-0.4,12.8-0.4,12.8
				C503.5,873.9,508.6,861.7,508.6,861.7z"/>
			<path class="st53" d="M490.6,896.9L490.6,896.9c0-1.2,0.3-2.2,1.5-2.2h0c1.1,0,2,1.1,2,2.2c0,1.1-0.7,2.1-1.8,2.1
				C491.2,899,490.6,898.1,490.6,896.9z"/>
			<path class="st53" d="M463.5,896.5c0-1.1,1-1.7,2.1-1.7h0c1.1,0,1.5,0.4,1.5,1.5v0c0,1.1-0.7,2.2-1.9,2.2
				C464.1,898.4,463.5,897.6,463.5,896.5z"/>
		</g>
		<path class="st42" d="M436.6,950.9c-13.6,10.2-37.2,57.2-37.2,57.2l9.5,9.6l26.5,24.9l13.4-12.5l-25.5-24.2l19.2-24.6
			c-0.7-2.4-1.2-4.1-1.5-4.9c-0.1-0.4-0.2-0.7-0.2-0.7c0.1-0.2,0.1-0.3,0.2-0.5c2-4.3,2.9-12.4,3.4-19.5c0.2-2.5,0.3-4.9,0.4-6.9
			c0-0.1,0-0.2,0-0.3"/>
	</g>
	<path class="st42" d="M916.8,932c-28.4,1.3-39.6,29.8-43.7,58.4h19.3c5.5-26.8,13.6-30.7,13.6-30.7L916.8,932z"/>
	<path class="st42" d="M941.4,931.7c31.6-0.3,39.6,30.2,43.7,57h-19.3c-5.5-25.2-13.6-30.1-13.6-30.1L941.4,931.7z"/>
	<path class="st42" d="M928.5,1010.5h-25.9l-0.3-3.4l-10.1-48.6c0-13.9,9.2-25.1,23.4-25.1h12.9V1010.5z"/>
	<path class="st42" d="M928.5,1010.5h27.1l0.3-3.4l10.1-48.6c0-13.9-9.2-25.1-23.4-25.1h-14.1V1010.5z"/>
	<path class="st8" d="M895,999.2c-6.3,0-11.3,4.6-11.3,11.3h22.7C906.3,1003.8,901.3,999.2,895,999.2z"/>
	<polygon class="st8" points="915.1,931.7 929.1,945.7 943.1,931.7 	"/>
	<path class="st56" d="M943.9,912.6c0-4.5,3.7-8.2,8.2-8.2c4.5,0,8.2,3.7,8.2,8.2c0,4.5-3.7,8.2-8.2,8.2
		C947.5,920.8,943.9,917.1,943.9,912.6"/>
	<path class="st8" d="M955.3,884.7v-5h-0.7c0-1.7,0-0.9,0-1.1c0-11.6-12-21.2-26.7-21.2c-14.8,0-26.7,9.6-26.7,21.3
		c0,0.3,0-0.6,0,1.1h0.4v20.2c0,13.3,10.3,23.4,23.7,23.4h5.3c13.3,0,24.7-10.1,24.7-23.4v-1.4c1.7,0,5.5-3.1,5.5-6.9
		C960.8,887.8,957,884.7,955.3,884.7"/>
	<path class="st56" d="M955.6,884.7c-0.2,0-0.3-0.1-0.3-0.1v-5h-0.7c0-1.7,0.1-0.9,0.1-1.1c0-11.6-12-21.2-26.7-21.2
		c-14.8,0-26.7,9.6-26.7,21.3c0,0.3,0-0.6,0.1,1.1h0.4v6.7h6.3c13,0,24.5-6.2,31.4-16.2c3.7,8.6,9.5,14.4,15.8,14.4
		C955.2,884.6,955.5,884.7,955.6,884.7"/>
	<path class="st57" d="M928.2,910.2c0,1-1.6,1.8-3.5,1.8c-1.9,0-3.5-0.8-3.5-1.8c0-1,1.6-1.8,3.5-1.8
		C926.6,908.4,928.2,909.2,928.2,910.2"/>
	<path class="st57" d="M934.5,910.2c0,1-1.6,1.8-3.5,1.8c-1.9,0-3.5-0.8-3.5-1.8c0-1,1.6-1.8,3.5-1.8
		C932.9,908.4,934.5,909.2,934.5,910.2"/>
	<path class="st57" d="M927.8,913.1c3.7,0,6.7-1.5,6.7-3.2h-13.3C921.2,911.5,924.1,913.1,927.8,913.1"/>
	<g class="st0">
		<g>
			<defs>
				<rect id="SVGID_7_" x="925.1" y="893.1" width="5" height="8.4"/>
			</defs>
			<clipPath id="SVGID_8_">
				<use xlink:href="#SVGID_7_"  style="overflow:visible;"/>
			</clipPath>
			<polygon class="st58" points="930.6,901.5 927.6,892.7 924.7,901.5 			"/>
		</g>
	</g>
	<g>
		<circle class="st59" cx="913.2" cy="892.9" r="2.3"/>
		<circle class="st59" cx="942" cy="892.9" r="2.3"/>
	</g>
	<path class="st48" d="M948.3,963.5c-18,14.6-52.2,12.9-52.2,12.9s1-31.6,1-38.5c12.1-7.7,20.2-5.7,20.2-5.7l4.5,5.3l6.7,7.1
		l6.7-7.1c0,0,3-4.4,4.5-5.3c1.3-0.8,15.3,0,21.4,4.3c0.6,0.4,0.3,1,0.3,1.6C961.1,942.7,960.9,953.2,948.3,963.5z"/>
	
		<radialGradient id="SVGID_9_" cx="987.2816" cy="1011.8768" r="375.9799" gradientTransform="matrix(0.7653 0 0 1.0673 237.5309 -56.8503)" gradientUnits="userSpaceOnUse">
		<stop  offset="0.5744" style="stop-color:#130C0E"/>
		<stop  offset="0.7977" style="stop-color:#130C0E"/>
		<stop  offset="1" style="stop-color:#130C0E"/>
	</radialGradient>
	<path class="st60" d="M1399.9,1030.5c0,1.5-1.2,3.5-2.2,3.5H588.2c-1.1,0-1.9-2-1.9-3.5v-16c0-1.5,0.9-2.3,1.9-2.3h809.5
		c1.1,0,2.2,0.8,2.2,2.3V1030.5z"/>
	<path class="st61" d="M1517.3,1020.7c0,1.4-0.4,3.3-1.7,3.3h-1003c-1.3,0-1.9-1.9-1.9-3.3v-8.7c0-1.4,0.6-3.1,1.9-3.1h1003
		c1.3,0,1.7,1.7,1.7,3.1V1020.7z"/>
	<path class="st33" d="M739.3,997.5c-6.3,0-11.3,6.3-11.3,11.3h22.6C750.6,1003.8,745.5,997.5,739.3,997.5z"/>
	<path class="st33" d="M853.4,997.5c-6.3,0-11.3,6.3-11.3,11.3h22.6C864.7,1003.8,859.7,997.5,853.4,997.5z"/>
	<rect x="764.8" y="1072.3" class="st25" width="23.3" height="68.2"/>
	<rect x="764.8" y="1072.3" class="st26" width="7.1" height="68.2"/>
	<rect x="803.1" y="1072.3" class="st25" width="23.3" height="68.2"/>
	<rect x="803.1" y="1072.3" class="st26" width="7.1" height="68.2"/>
	<g>
		<path class="st62" d="M776.4,1150.3c-9,0-16.3,7.9-16.3,16.3h32.5C792.7,1158.1,785.4,1150.3,776.4,1150.3z"/>
		<rect x="764.1" y="1139.7" class="st63" width="25.2" height="25.2"/>
	</g>
	<path class="st64" d="M775,1039.3c-8.2,0-14.9,6.7-14.9,14.9v86.3h29.8l4.4-86.2C794.3,1046.1,783.3,1039.3,775,1039.3z"/>
	<g>
		<path class="st49" d="M673.3,1002.1h-42.2c-2.5,0-4.5,1.7-4.5,5h51.2C677.8,1003.8,675.8,1002.1,673.3,1002.1z"/>
		<path class="st49" d="M724.5,1002.1h-42.2c-2.5,0-4.5,1.7-4.5,5H729C729,1003.8,727,1002.1,724.5,1002.1z"/>
		<path class="st65" d="M733.1,1008c0,0.7-0.6,0.8-1.4,0.8H623.6c-0.7,0-1.4-0.1-1.4-0.8l0,0c0-0.7,0.6-0.8,1.4-0.8h108.1
			C732.5,1007.2,733.1,1007.3,733.1,1008L733.1,1008z"/>
	</g>
	<path class="st64" d="M816.1,1039.3c-8.2,0-19.8,7.5-19.8,17.5l4.9,105.4H831v-104.8C831,1047.4,824.3,1039.3,816.1,1039.3z"/>
	<g>
		<path class="st33" d="M748.8,956.6c-6.2,0-11.2,5-11.2,11.2v41.3H760v-41.3C760,961.6,755,956.6,748.8,956.6z"/>
	</g>
	<g>
		<path class="st33" d="M842.9,956.6c-6.2,0-11.2,5-11.2,11.2v41.3h22.4v-41.3C854.1,961.6,849.1,956.6,842.9,956.6z"/>
	</g>
	<path class="st66" d="M754.8,1036v19.1c0,5.1,4.1,9.2,9.2,9.2h64.5c5.1,0,9.2-4.1,9.2-9.2V1036H754.8z"/>
	<rect x="754.8" y="1035" class="st67" width="83" height="8.7"/>
	<path class="st68" d="M815.5,931.7h-39.4c-4.3,0-8.6,1.5-12,3.6c-14.8,0.4-26.9,12.8-26.9,27.7v17.4H754v57h83.9v-82.7
		C837.9,942.2,827.9,931.7,815.5,931.7z"/>
	<path class="st68" d="M854.7,962.9c0-15-12.3-27.1-27.2-27.4c-2-1.2-4.2-2.2-6.5-2.7c5.7,24.9-18.3,73.9-67,78v26.7h83.9v-57h16.8
		V962.9z"/>
	<rect x="1102.9" y="955.2" class="st69" width="23.5" height="15.1"/>
	<path class="st70" d="M1102.2,996.5c0,7.2,5.8,13,13,13c7.2,0,13-5.8,13-13V962h-26.1V996.5z"/>
	<path class="st70" d="M1125.2,988.3c4.5,5.6,3.7,13.8-1.9,18.3l0,0c-5.6,4.5-13.8,3.7-18.3-1.9l-35.3-43.5
		c-4.5-5.6-3.7-13.8,1.9-18.3l0,0c5.6-4.5,13.8-3.7,18.3,1.9L1125.2,988.3z"/>
	<g>
		<path class="st71" d="M757.3,1163.4c0,1.7-1.4,3.2-3.2,3.2h-2.1c-1.7,0-3.2-1.4-3.2-3.2V1069c0-1.7,1.4-3.2,3.2-3.2h2.1
			c1.7,0,3.2,1.4,3.2,3.2V1163.4z"/>
		<path class="st71" d="M844.6,1163.4c0,1.7-1.4,3.2-3.2,3.2h-2.1c-1.7,0-3.2-1.4-3.2-3.2V1069c0-1.7,1.4-3.2,3.2-3.2h2.1
			c1.7,0,3.2,1.4,3.2,3.2V1163.4z"/>
		<path class="st71" d="M844.6,1054.3c0,2.9-0.8,4.9-2.2,4.9h-90.5c-1.4,0-3-2-3-4.9V949.4c0-2.9,1.6-6,3-6h90.5
			c1.4,0,2.2,3.1,2.2,6V1054.3z"/>
		<path class="st71" d="M844.6,1066.7c0,1.4-1.1,2.5-2.5,2.5h-90.6c-1.4,0-2.5-1.1-2.5-2.5v-13.4c0-1.4,1.1-2.5,2.5-2.5h90.6
			c1.4,0,2.5,1.1,2.5,2.5V1066.7z"/>
	</g>
	<rect x="1032.5" y="926.6" class="st49" width="36.9" height="8.4"/>
	<path class="st43" d="M1070.1,1039.3c-8.2,0-14.9,7.4-14.9,16.5l5,108.7h19.6l5.2-108.7C1085,1046.7,1078.4,1039.3,1070.1,1039.3z"
		/>
	<path class="st66" d="M1009.5,1036v19.1c0,5.1,4.1,9.2,9.2,9.2h64.5c5.1,0,9.2-4.1,9.2-9.2V1036H1009.5z"/>
	<rect x="1009.5" y="1035" class="st67" width="83" height="8.7"/>
	<path class="st72" d="M1070.2,932.1h-39.4c-12.4,0-22.5,10.1-22.5,22.5v82.2h84.4v-82.2C1092.7,942.2,1082.6,932.1,1070.2,932.1z"
		/>
	<path class="st49" d="M1517,933.5l-5.8-7.5c0,0,13.3-11.8,36-4.9l-4,9.6L1517,933.5z"/>
	<path class="st73" d="M1510.5,1030.7h-86.3c-8.2,0-14.9,7.6-14.9,17c0,1,0.1,2.1,0.3,3.1c-0.2,1-0.3,2-0.3,3.1v104.3h29.8v-93.4
		h71.5V1030.7z"/>
	<path class="st74" d="M1518.1,1033.9h-86.3c-8.2,0-14.9,6.7-14.9,14.9c0,0.9,0.1,1.8,0.3,2.7c-0.2,0.9-0.3,1.8-0.3,2.7v108.9h29.8
		v-99.4h71.5V1033.9z"/>
	<path class="st75" d="M1541.3,924.6c14.3,4.4,19.5,19.5,15.2,33.7l-28.8,100.4l-51.7-15.8l31.6-100.4
		C1511.9,928.3,1527,920.2,1541.3,924.6z"/>
	<path class="st69" d="M1542.4,933.1c-6.5-5.1-15.3-3.5-19.9,3.9l-26.4,46.8h-47.7v28.5h50.3c0.6,0,2.6-0.2,3-0.3
		c5.1,0,10.4-2.1,13.6-7.3l30.6-48.9C1550.5,948.4,1548.9,938.2,1542.4,933.1z"/>
	<g>
		<rect x="943.6" y="985.4" class="st69" width="15.1" height="23.5"/>
		<path class="st70" d="M1029.9,938.8c-5.9-4.1-14-2.7-18.2,3.2l-30,42.7h-31.1v26.1h34.4c1.5,0,2.9-0.3,4.2-0.7
			c4-0.1,7.9-2,10.4-5.5l33.4-47.5C1037.3,951,1035.8,942.9,1029.9,938.8z"/>
	</g>
	<g>
		<radialGradient id="SVGID_10_" cx="770.7705" cy="1106.9817" r="13.4862" gradientUnits="userSpaceOnUse">
			<stop  offset="0.5744" style="stop-color:#130C0E"/>
			<stop  offset="0.7977" style="stop-color:#130C0E"/>
			<stop  offset="1" style="stop-color:#130C0E"/>
		</radialGradient>
		<rect x="755.7" y="1097.8" class="st76" width="30.2" height="18.5"/>
		<radialGradient id="SVGID_11_" cx="770.1883" cy="1136.7157" r="36.2304" gradientUnits="userSpaceOnUse">
			<stop  offset="0.5744" style="stop-color:#130C0E"/>
			<stop  offset="0.7977" style="stop-color:#130C0E"/>
			<stop  offset="1" style="stop-color:#130C0E"/>
		</radialGradient>
		<path class="st77" d="M811.7,1108.8c0-1.2-0.9-2.1-2.1-2.1h-78.8c-1.2,0-2.1,0.9-2.1,2.1v55.9c0,1.2,0.9,2.1,2.1,2.1h78.8
			c1.2,0,2.1-0.9,2.1-2.1V1108.8z"/>
	</g>
	<path class="st28" d="M1262.5,1000.5h-6.1c-4.6,0-8.3,3.4-8.3,8.4h22.7C1270.9,1003.8,1267.1,1000.5,1262.5,1000.5z"/>
	<g>
		<path class="st78" d="M1298.4,956.6c-6.2,0-10.9,5-12.5,11.2v42.8h23.5v-42.8C1309.3,961.6,1304.5,956.6,1298.4,956.6z"/>
	</g>
	<g>
		<path class="st79" d="M1302.1,1036v19.1c0,5.1,4.1,9.2,9.2,9.2h52.5c5.1,0,9.2-4.1,9.2-9.2V1036H1302.1z"/>
		<rect x="1302.1" y="1035" class="st79" width="71" height="8.7"/>
		<path class="st80" d="M1349.1,932.1h-27.9c-4.8,0-9.2,1.4-12.8,3.9c-12.7,2.6-22.3,13.6-22.3,26.9v17h12.2v56.9h73.7v-82.2
			C1372,942.2,1361.7,932.1,1349.1,932.1z"/>
		<rect x="1299.2" y="1013.9" class="st81" width="72.1" height="23.5"/>
	</g>
	<path class="st71" d="M1578.5,925.2c-22.4,13.7-31.6,51.7-35.2,85.3h-72.9v8.4h72.1c-1.2,13.4-1.5,25.4-1.5,33.8
		c-0.3-0.1-0.5-0.3-0.8-0.3h-97.6c-2.2,0-4.2,1.9-4.2,4c0,0.7,0.2,1.4,0.2,1.9v5.8h5v54.1v7.4v45.8h6.7v-45.3h90.6v45.3h6.7v-106.8
		v-5.2c0-104.6,34.1-128.8,34.1-128.8L1578.5,925.2z M1450.2,1117.9v-53.7h90.6v53.7H1450.2z"/>
	<g>
		<path class="st8" d="M1548.1,871.9l-0.8-15.6l-57.8,2.9l1.6,32.1c0.7,14.4,13,25.5,27.4,24.8l5.7-0.3c14.4-0.7,25.5-13,24.8-27.4
			l-0.1-1.5c3.3-0.2,5.8-3.6,5.6-7.8C1554.2,875,1551.3,871.8,1548.1,871.9"/>
		<path class="st34" d="M1520.5,904.6c3.7-0.2,6.6-2.8,6.5-5.8l-13.5,0.7C1513.6,902.5,1516.7,904.8,1520.5,904.6"/>
		<g class="st0">
			<g>
				<defs>
					
						<rect id="SVGID_12_" x="1512" y="869.3" transform="matrix(0.9987 -5.005018e-02 5.005018e-02 0.9987 -42.0523 76.9668)" width="7.7" height="17.7"/>
				</defs>
				<clipPath id="SVGID_13_">
					<use xlink:href="#SVGID_12_"  style="overflow:visible;"/>
				</clipPath>
				
					<rect x="1512" y="869.3" transform="matrix(0.9987 -5.005018e-02 5.005018e-02 0.9987 -42.0523 76.9668)" class="st82" width="7.7" height="17.7"/>
			</g>
		</g>
		<path class="st43" d="M1546.7,851.6c-0.5-9.9-4.2-10.6-10.9-10.4v0l-10.2,0.5c-22,1.1-24.9-8.5-24.9-8.5
			c-4.1,7.8,0.9,13.5,0.9,13.5c-13.2,1.6-18.7-11.1-18.7-11.1c-6.7,21.2,3.7,29.1,6.8,30.9l-0.3-5.3l53.2-2.9l0.2,4.6h0
			c0.2,5,2.5,9,5.1,8.9l-0.4-9l-0.2-4.9h0L1546.7,851.6z"/>
		<g>
			
				<ellipse transform="matrix(0.9987 -5.005018e-02 5.005018e-02 0.9987 -41.7703 76.2505)" class="st59" cx="1501.6" cy="872.2" rx="2.2" ry="2.2"/>
			
				<ellipse transform="matrix(0.9987 -5.005018e-02 5.005018e-02 0.9987 -41.6661 77.6361)" class="st59" cx="1529.4" cy="870.8" rx="2.2" ry="2.2"/>
		</g>
	</g>
	<g>
		<path class="st36" d="M1361.3,886.4v-5h0.8c0,0,0-0.5,0-0.7c0-11.6-12-21-26.7-21c-14.8,0-26.7,9.3-26.7,20.9c0,0.3,0,0.8,0,0.8
			h0.6v21c0,13.3,10.1,24.3,23.5,24.3h5.3c13.3,0,23.3-11,23.3-24.3V901V886.4"/>
		<path class="st36" d="M1362.1,887.7l-0.1-6.4h-0.1c0,0,0.1-0.5,0.1-0.7c0-11.6-12.4-21-27.8-21c-15.3,0-27.8,9.3-27.8,20.9
			c0,0.3,0,0.8,0.1,0.8h-0.1l0.5,7.1l2.5,23.6c5.7,5.7,42.2,1.8,42.2,1.8s13.5-0.9,10.7-6.9"/>
		<path class="st80" d="M1326.2,888.5c0-4.5,3.7-8.2,8.2-8.2c4.5,0,8.2,3.7,8.2,8.2c0,4.5-3.7,8.2-8.2,8.2
			C1329.9,896.7,1326.2,893,1326.2,888.5"/>
		<path class="st83" d="M1326.2,916.8c0-17.4,3.7-31.5,8.2-31.5c4.5,0,8.2,14.1,8.2,31.5c0,17.4-3.7,31.5-8.2,31.5
			C1329.9,948.3,1326.2,934.2,1326.2,916.8"/>
	</g>
	<g>
		<path class="st33" d="M825.8,889.9l2.1-14.3l-52.8-7.9l-4.4,29.3c-2,13.1,7.1,25.4,20.3,27.4l5.2,0.8c13.2,2,25.4-7.1,27.4-20.3
			l0.2-1.4c3,0.4,5.9-2.2,6.4-6C830.7,893.8,828.8,890.3,825.8,889.9"/>
		<path class="st36" d="M833.7,875.7c0.3-2-0.8-3.9-2.6-5.1c0.3-0.8,0.6-1.6,0.7-2.5c0.9-6-3.8-11.8-10.8-13.8
			c-1.5-6.3-7.9-11.7-16.2-12.9c-7.3-1.1-14.1,1.3-17.9,5.8c-1-0.3-1.9-0.5-3-0.7c-8.7-1.3-16.6,3.3-17.6,10.2
			c-0.3,1.8,0,3.5,0.6,5.2c-1.6,0.8-2.8,2.1-3,3.8c-0.4,2.5,1.5,5,4.4,6c1.3,3.6,3.8,5.8,5,6.6c0,0-5.7,15.3-2.8,22.6
			s50.3,14,50.9,7.1c0.6-6.9,1.5-17.3,1.5-17.3c-0.5,3.6,0,1.3,2.3,1.7l1-6.5l0.5-3.5l0,0l0.3-2.1
			C830.3,880.4,833.3,878.5,833.7,875.7z"/>
	</g>
	<path class="st84" d="M1077.8,883v-15.1h-53.7v30c0,13.4,11.3,23.6,24.8,23.6h5.3c13.4,0,23.6-10.2,23.6-23.6v-1.4
		c3.4,0,5.5-3.1,5.5-7c0-3.8-2.2-7-5.5-7"/>
	<path class="st85" d="M1077.8,863.8c0-9.2-3.4-10.3-8.4-10.4v-0.6h-10.1c-20.5,0-22.9-8.8-22.9-8.8c-4.1,7,0.1,12.7,0.1,12.7
		c-12.4,0.8-16.9-11.1-16.9-11.1c-7.2,19.4,2.1,27.3,4.9,29.1c0,0-4.4,28.1,1.2,33s47,4.8,49.2-3.9c2.2-8.7,0.5-19.4,0.5-19.4
		s0.6-1.8,2.3-1.8v-8.3v-4.7l0,0V863.8z"/>
	<path class="st8" d="M920,1009.4l-0.2-19.8l13-0.7l0-2.4l12.5-0.6l0.1,4.3l-0.2,19.3C930.2,1010,920,1009.4,920,1009.4z"/>
	<path class="st8" d="M1424.5,1009.9l-0.2-19.8l13-0.7l0-2.4l12.5-0.6l0.1,4.3l-0.2,19.3C1434.7,1010.4,1424.5,1009.9,1424.5,1009.9
		z"/>
	<circle class="st86" cx="1191.1" cy="969.7" r="10.5"/>
	<polyline class="st78" points="1308.2,1062.9 1327.3,1163.2 1333.9,1163.2 1335.4,1067.4 	"/>
	<polyline class="st78" points="1365.8,1062.9 1346.7,1163.2 1340,1163.2 1338.5,1067.4 	"/>
	<g>
		<path class="st71" d="M1297.5,1163.4c0,1.7-1.4,3.2-3.2,3.2h-2.1c-1.7,0-3.2-1.4-3.2-3.2V1069c0-1.7,1.4-3.2,3.2-3.2h2.1
			c1.7,0,3.2,1.4,3.2,3.2V1163.4z"/>
		<path class="st71" d="M1384.8,1163.4c0,1.7-1.7,3.2-3.4,3.2h-2.4c-1.7,0-2.6-1.4-2.6-3.2v-94c0-1.7,0.8-3.5,2.6-3.5h2.4
			c1.7,0,3.4,1.8,3.4,3.5V1163.4z"/>
		<path class="st71" d="M1384.8,1054.3c0,2.9-1.4,4.9-2.8,4.9h-90.5c-1.4,0-2.3-2-2.3-4.9v-93.4c0-2.9,1-5.7,2.3-5.7h90.5
			c1.4,0,2.8,2.9,2.8,5.7V1054.3z"/>
		<path class="st71" d="M1384.8,1066.7c0,1.4-1.1,2.5-2.5,2.5h-90.6c-1.4,0-2.5-1.1-2.5-2.5v-13.4c0-1.4,1.1-2.5,2.5-2.5h90.6
			c1.4,0,2.5,1.1,2.5,2.5V1066.7z"/>
	</g>
	<path class="st43" d="M1035.4,1039.8c-8.2,0-14.9,7.4-14.9,16.5l5,108.7h19.6l5.2-108.7C1050.3,1047.2,1043.6,1039.8,1035.4,1039.8
		z"/>
	<g>
		<path class="st71" d="M1012.3,1163.4c0,1.7-1.4,3.2-3.2,3.2h-2.1c-1.7,0-3.2-1.4-3.2-3.2V1069c0-1.7,1.4-3.2,3.2-3.2h2.1
			c1.7,0,3.2,1.4,3.2,3.2V1163.4z"/>
		<path class="st71" d="M1099.6,1163.4c0,1.7-1.4,3.2-3.2,3.2h-2.1c-1.7,0-3.2-1.4-3.2-3.2V1069c0-1.7,1.4-3.2,3.2-3.2h2.1
			c1.7,0,3.2,1.4,3.2,3.2V1163.4z"/>
		<path class="st71" d="M1099.6,1054.3c0,2.9-1.1,4.9-2.4,4.9h-90.5c-1.4,0-2.7-2-2.7-4.9V949.4c0-2.9,1.3-6,2.7-6h90.5
			c1.4,0,2.4,3.1,2.4,6V1054.3z"/>
		<path class="st71" d="M1099.6,1066.7c0,1.4-1.1,2.5-2.5,2.5h-90.6c-1.4,0-2.5-1.1-2.5-2.5v-13.4c0-1.4,1.1-2.5,2.5-2.5h90.6
			c1.4,0,2.5,1.1,2.5,2.5V1066.7z"/>
	</g>
	<g>
		<rect x="1525.7" y="1109.5" class="st87" width="30.2" height="18.5"/>
		<path class="st88" d="M1582.7,1119.8c0-1.2-0.9-2.1-2.1-2.1h-78.8c-1.2,0-2.1,0.9-2.1,2.1v55.9c0,1.2,0.9,2.1,2.1,2.1h78.8
			c1.2,0,2.1-0.9,2.1-2.1V1119.8z"/>
	</g>
	<path class="st89" d="M960.9,937.6c0.6,0.4,0.3,1,0.3,1.6c-0.3,4.5-0.5,14.8-12.9,24.9c-17.7,14.4-51.3,12.7-51.3,12.7"/>
	<g>
		<path class="st49" d="M913.9,961.4c2.9-0.9,4-3.8,2.4-6.5c-1.5-2.7-5.1-4.1-8-3.2c-2.9,0.9-4,3.8-2.4,6.5
			C907.5,960.9,911,962.3,913.9,961.4"/>
		<path class="st90" d="M916,955c-0.1-0.2-0.3-0.4-0.4-0.6l-0.3,0.9l0,0l0-0.1h0h0h-0.8c-0.2,0-0.4,0.2-0.4,0.4c0,0.1,0,0.2,0.1,0.2
			l0.1,0.1l0.6,0.8l0,0.1h0c0.2,0,0.2,0.4,0.1,0.7c-0.1,0.3-0.3,0.5-0.6,0.7c-0.3,0.2-0.7,0.2-1,0.2h-1.3H912h0l0,0l0,0l0.3-0.9
			l0-0.4l0-0.4h0h0h0.5h0.3l0,0.4c0.2,0,0.4,0,0.4-0.1c0-0.1,0,0-0.1-0.1c0,0,0,0,0,0l-0.4-0.8l0.3,0v0c0-0.2-0.5-0.5-0.4-0.8
			c0.1-0.3,0.2-1,0.5-1.2c0.3-0.2,0.5-0.7,0.9-0.7h1.2c-1.3-1.7-3.5-2.2-5.6-2.1l-0.3,1.3l0,0.4l0,0.4h0h0h-1.1h-0.2h0l0-0.3l0-0.2
			l0.2-0.8c-2.6,0.9-3.6,3.6-2.2,6.1c0.1,0.1,0.2,0.2,0.2,0.4l1.3-4.2l0-0.4l0-0.4h0h0.2h1.1h0.1h0l0,0.4l0,0.3l-1.3,4.3l0,0l0,0h0
			h0h-1.1h-0.1c1.6,1.7,4.6,3.4,7.2,2.6C916.4,960.2,917.5,957.5,916,955 M911.8,957.5c-0.1,0.3-0.3,0.5-0.6,0.7
			c-0.3,0.2-0.7,0.3-1,0.3h-1.3h-0.1h0l0,0l0,0l0.3-0.9l0-0.4l0-0.4h0h0h0.5h0.3l0,0.4c0.2,0,0.4,0,0.4-0.1c0-0.1,0,0-0.1-0.1
			c0,0,0,0,0,0l-0.4-0.8l0.2,0v0c0-0.2-0.4-0.5-0.3-0.8c0.1-0.3,0.2-1,0.5-1.2c0.3-0.2,0.6-0.7,0.9-0.7h1.3h0.1h0l0,0.4l0,0.3
			l-0.3,1l0,0l0,0h0h0h-0.8c-0.2,0-0.4,0.2-0.4,0.4c0,0.1,0,0.2,0.1,0.2l0.1,0.1l0.6,0.8l0,0l0,0
			C911.8,956.9,911.9,957.2,911.8,957.5"/>
	</g>
	<g>
		<path class="st32" d="M641.4,978.2c0.3,4.2-4.4,7.9-10.3,8.3l0,0c-6,0.4-11-2.8-11.2-7l-3.3-54.6c-0.3-4.2,4.4-7.9,10.3-8.3l0,0
			c6-0.4,11,2.8,11.2,7L641.4,978.2z"/>
		<path class="st33" d="M615.3,902l18.1-1.3l1.3,11.8l2.2-0.2l1.3,11.4l-4,0.3l-17.7,0.9C615.4,911.4,615.3,902,615.3,902z"/>
		
			<rect x="616.3" y="924.1" transform="matrix(0.9982 -6.057445e-02 6.057445e-02 0.9982 -55.0004 39.7115)" class="st91" width="22.4" height="5.8"/>
	</g>
</g>
</svg>
